<?xml version="1.0" standalone="no"?>
<!DOCTYPE svg PUBLIC "-//W3C//DTD SVG 20010904//EN"
 "http://www.w3.org/TR/2001/REC-SVG-20010904/DTD/svg10.dtd">
<svg version="1.0" xmlns="http://www.w3.org/2000/svg"
 width="3521.000000pt" height="2375.000000pt" viewBox="0 0 3521.000000 2375.000000"
 preserveAspectRatio="xMidYMid meet">

<g transform="translate(0.000000,2375.000000) scale(0.100000,-0.100000)"
fill="#000000" stroke="none">
<path d="M12850 23730 c-8 -5 -42 -10 -75 -11 -33 0 -87 -5 -120 -10 -33 -6
-94 -14 -135 -18 -71 -8 -140 -24 -185 -42 -11 -4 -38 -11 -60 -14 -22 -4 -62
-18 -88 -31 -27 -13 -59 -24 -72 -24 -13 0 -27 -4 -30 -10 -3 -5 -14 -10 -23
-10 -9 0 -68 -25 -129 -55 -62 -30 -117 -55 -122 -55 -5 0 -14 -7 -22 -16 -13
-16 -29 -25 -131 -76 -30 -16 -63 -37 -73 -48 -10 -11 -24 -20 -31 -20 -7 0
-40 -25 -72 -55 -33 -30 -64 -55 -70 -55 -23 0 -368 -344 -435 -434 -21 -28
-51 -64 -67 -81 -27 -29 -100 -132 -100 -142 0 -2 -17 -25 -38 -51 -21 -26
-48 -67 -61 -92 -13 -25 -31 -54 -40 -65 -9 -11 -41 -68 -70 -127 -30 -59 -60
-113 -67 -119 -8 -6 -14 -20 -14 -31 0 -10 -13 -45 -30 -78 -16 -33 -30 -66
-30 -73 0 -8 -11 -34 -23 -58 -13 -24 -27 -57 -31 -73 -4 -16 -16 -48 -26 -69
-11 -22 -22 -56 -26 -76 -6 -37 -16 -66 -40 -113 -8 -14 -14 -42 -14 -61 0
-20 -4 -39 -10 -42 -5 -3 -10 -17 -10 -31 0 -14 -5 -35 -12 -47 -11 -20 -32
-128 -44 -222 -3 -22 -9 -49 -15 -60 -12 -27 -28 -170 -58 -535 -10 -123 -3
-357 11 -366 4 -3 8 -47 8 -98 0 -128 -4 -131 -169 -141 -69 -4 -132 -11 -140
-15 -22 -11 -216 -40 -266 -41 -22 0 -49 -6 -59 -14 -11 -8 -32 -15 -47 -15
-15 0 -31 -4 -34 -10 -3 -5 -27 -10 -53 -10 -26 0 -60 -7 -76 -15 -15 -8 -39
-15 -52 -15 -12 0 -25 -4 -28 -9 -4 -5 -25 -12 -49 -16 -42 -6 -69 -16 -119
-41 -14 -8 -39 -14 -56 -14 -16 0 -49 -11 -74 -24 -25 -13 -60 -27 -78 -31
-18 -4 -53 -18 -76 -31 -24 -13 -50 -24 -60 -24 -9 0 -37 -11 -63 -24 -25 -13
-89 -45 -141 -71 -52 -26 -102 -50 -110 -55 -8 -4 -44 -23 -80 -41 -93 -47
-133 -69 -151 -85 -8 -8 -20 -14 -26 -14 -6 0 -23 -10 -38 -22 -16 -13 -52
-36 -80 -53 -59 -34 -122 -78 -170 -117 -18 -16 -38 -28 -44 -28 -6 0 -31 -18
-55 -40 -24 -22 -47 -40 -53 -40 -5 0 -25 -16 -44 -36 -18 -19 -56 -50 -84
-69 -60 -40 -523 -503 -561 -560 -14 -22 -46 -61 -71 -86 -25 -26 -50 -56 -57
-66 -6 -11 -29 -46 -51 -78 -22 -32 -48 -72 -58 -89 -11 -17 -31 -44 -46 -61
-15 -16 -37 -51 -49 -76 -12 -25 -31 -54 -42 -64 -11 -10 -20 -24 -20 -30 0
-7 -9 -23 -19 -36 -10 -14 -44 -73 -74 -131 -30 -59 -65 -119 -76 -134 -12
-15 -21 -34 -21 -43 0 -9 -25 -66 -55 -126 -30 -61 -55 -117 -55 -126 0 -10
-11 -37 -25 -60 -14 -24 -25 -52 -25 -62 0 -9 -11 -41 -25 -70 -14 -28 -29
-71 -32 -95 -3 -23 -10 -45 -14 -48 -5 -3 -9 -13 -9 -23 0 -10 -7 -24 -15 -31
-8 -7 -15 -26 -15 -42 0 -27 -21 -108 -40 -153 -5 -11 -13 -45 -19 -75 -16
-90 -22 -114 -32 -135 -9 -20 -26 -139 -36 -250 -3 -33 -9 -65 -14 -72 -42
-50 -43 -1101 -2 -1166 4 -6 11 -41 15 -77 12 -113 27 -204 37 -225 6 -11 12
-38 15 -60 9 -74 31 -170 44 -192 6 -12 12 -33 12 -47 0 -14 4 -28 10 -31 6
-3 10 -22 10 -42 0 -19 6 -47 14 -61 23 -46 35 -76 42 -112 3 -19 17 -58 30
-86 13 -28 24 -58 24 -66 0 -8 11 -36 25 -62 14 -26 25 -54 25 -61 0 -8 13
-41 29 -72 16 -32 62 -125 102 -206 97 -194 99 -199 118 -222 9 -11 25 -38 36
-60 11 -22 30 -54 42 -71 13 -17 23 -36 23 -41 0 -6 7 -16 16 -24 8 -7 24 -29
35 -48 11 -20 40 -63 64 -96 25 -33 48 -67 52 -75 3 -8 23 -35 43 -60 20 -25
42 -55 49 -67 19 -36 13 -98 -14 -149 -14 -26 -25 -59 -25 -73 0 -32 -22 -97
-38 -113 -7 -7 -12 -23 -12 -37 0 -32 -29 -179 -41 -206 -9 -20 -26 -140 -35
-245 -3 -30 -9 -64 -14 -75 -26 -54 -26 -735 0 -790 5 -11 11 -45 14 -75 14
-154 27 -257 36 -272 5 -9 17 -56 26 -105 9 -48 22 -101 29 -118 7 -16 18 -41
23 -55 6 -14 13 -46 16 -72 3 -26 10 -56 15 -65 12 -25 26 -59 46 -118 10 -27
24 -59 32 -70 7 -11 13 -28 13 -38 0 -10 11 -37 24 -61 13 -23 27 -56 30 -73
4 -17 18 -45 32 -64 13 -18 24 -43 24 -55 0 -12 7 -27 16 -35 8 -7 29 -40 45
-73 44 -91 60 -119 79 -141 9 -11 20 -28 24 -38 7 -22 138 -218 198 -299 196
-260 548 -607 761 -750 39 -27 82 -59 96 -72 14 -14 37 -30 51 -35 39 -17 93
-51 120 -75 14 -13 44 -32 67 -44 42 -21 76 -39 103 -53 29 -16 125 -66 155
-81 75 -39 167 -78 182 -78 9 0 27 -9 39 -21 12 -11 42 -23 66 -26 23 -4 62
-16 85 -29 24 -12 62 -25 85 -29 23 -4 49 -11 58 -15 56 -28 117 -46 190 -57
19 -3 40 -10 47 -15 7 -5 41 -14 75 -18 126 -18 203 -31 223 -39 50 -22 281
-35 627 -36 391 -1 398 -2 398 -50 0 -12 7 -28 15 -35 8 -7 15 -21 15 -31 0
-10 5 -21 10 -24 6 -3 10 -14 10 -23 0 -9 14 -46 30 -80 17 -35 30 -72 30 -82
0 -10 7 -24 16 -31 9 -8 25 -32 35 -54 24 -53 77 -146 95 -166 8 -8 14 -19 14
-23 0 -5 18 -30 40 -56 22 -26 40 -51 40 -54 0 -11 80 -116 126 -167 57 -63
90 -117 98 -164 4 -22 11 -44 16 -50 4 -5 10 -23 13 -40 14 -68 33 -141 40
-153 9 -13 22 -76 38 -182 5 -36 14 -74 19 -85 5 -11 11 -38 14 -60 2 -22 9
-60 15 -85 5 -25 10 -72 11 -105 0 -34 5 -66 11 -72 30 -30 52 -504 43 -928
-4 -165 -8 -311 -11 -325 -2 -14 -8 -59 -12 -101 -5 -42 -14 -84 -20 -95 -6
-10 -15 -62 -20 -114 -10 -105 -18 -145 -32 -175 -5 -11 -14 -49 -19 -85 -14
-102 -29 -173 -39 -195 -5 -11 -17 -65 -26 -120 -9 -55 -20 -109 -25 -120 -16
-38 -40 -124 -40 -144 0 -10 -6 -32 -14 -48 -14 -28 -33 -92 -43 -148 -3 -16
-9 -34 -13 -40 -4 -5 -11 -29 -15 -52 -4 -24 -11 -45 -16 -49 -5 -3 -9 -22 -9
-43 0 -22 -11 -58 -24 -82 -13 -24 -27 -71 -31 -103 -7 -60 -9 -65 -39 -123
-9 -17 -16 -50 -16 -73 0 -25 -9 -58 -24 -83 -13 -24 -26 -69 -30 -102 -4 -33
-19 -82 -32 -108 -15 -31 -24 -66 -24 -97 0 -27 -5 -52 -10 -55 -5 -3 -10 -19
-10 -34 0 -15 -7 -36 -15 -47 -9 -12 -15 -43 -15 -84 0 -36 -7 -110 -15 -165
-19 -132 -19 -273 1 -420 16 -118 23 -143 50 -197 8 -14 14 -41 14 -59 0 -18
10 -45 23 -63 13 -17 27 -44 31 -61 4 -16 15 -38 24 -48 9 -10 28 -40 42 -68
14 -27 41 -70 60 -96 43 -57 321 -343 333 -343 5 0 25 -13 44 -30 18 -16 40
-30 47 -30 7 0 23 -11 36 -25 13 -14 29 -25 36 -25 7 0 26 -11 42 -25 17 -14
35 -25 40 -25 6 0 23 -11 39 -23 15 -13 43 -29 61 -35 18 -6 45 -20 59 -32 14
-11 32 -20 39 -20 7 0 52 -18 99 -40 47 -22 92 -40 99 -40 7 0 34 -11 60 -25
26 -14 60 -25 76 -25 16 0 44 -6 62 -14 50 -21 137 -46 164 -46 12 0 26 -4 29
-10 3 -5 23 -10 43 -10 20 -1 48 -7 62 -15 17 -9 56 -14 117 -15 50 0 94 -4
97 -9 9 -13 342 -22 441 -10 50 5 128 13 175 18 47 4 101 14 120 21 19 7 44
16 55 21 11 4 45 15 75 24 30 9 63 23 74 31 11 8 29 14 39 14 10 0 33 11 51
25 18 14 37 25 43 25 5 0 20 11 33 25 13 14 29 25 37 25 17 0 173 157 173 174
0 7 9 21 20 31 11 10 30 39 42 64 12 25 29 54 36 63 8 10 31 50 51 90 32 65
40 73 68 76 25 3 36 -3 62 -36 17 -22 34 -54 37 -70 3 -17 17 -41 30 -53 13
-12 24 -28 24 -35 0 -7 11 -26 25 -42 14 -17 25 -35 25 -41 0 -7 41 -55 92
-107 85 -88 193 -171 263 -202 17 -8 37 -18 45 -23 32 -19 77 -37 135 -53 33
-10 72 -24 87 -32 14 -8 55 -14 91 -14 36 0 68 -4 71 -9 4 -5 41 -12 84 -16
42 -4 82 -12 89 -17 25 -20 466 11 489 35 4 4 41 7 83 7 48 0 87 6 105 15 15
8 39 15 52 15 12 0 25 4 28 9 3 5 35 12 71 16 36 3 67 11 70 16 4 5 16 9 29 9
12 0 31 7 42 15 10 8 33 15 51 15 17 0 34 4 38 9 3 5 18 12 35 16 16 3 47 15
68 25 21 10 52 22 68 26 16 4 36 12 44 18 8 7 33 18 55 25 22 8 45 18 51 23 7
5 61 33 122 63 60 30 115 61 122 70 7 8 23 15 36 15 13 0 38 13 56 29 18 15
43 31 54 35 12 4 29 15 39 26 10 11 23 20 29 20 23 0 184 160 228 227 24 37
53 95 63 128 10 33 22 69 27 81 12 27 4 225 -11 289 -17 69 -93 218 -147 290
-25 33 -53 74 -62 90 -9 17 -59 73 -109 126 -51 52 -93 99 -93 104 0 4 -72 81
-160 171 -88 89 -160 168 -160 174 0 7 -42 56 -92 110 -107 113 -168 190 -199
251 -13 24 -33 57 -46 72 -13 16 -23 38 -23 49 0 11 -11 33 -25 50 -15 18 -25
42 -25 62 0 18 -7 41 -15 52 -8 10 -15 29 -15 40 0 12 -7 38 -15 57 -8 20 -15
65 -15 99 -1 39 -6 70 -15 82 -20 27 -22 465 -2 484 7 8 14 55 18 120 5 104
17 159 45 214 8 14 14 51 14 82 0 31 5 65 10 76 5 11 15 29 21 41 6 12 19 58
30 103 11 44 24 90 29 101 16 35 40 109 40 126 0 9 6 22 14 28 8 7 17 28 21
48 3 19 17 59 31 89 13 29 24 59 24 68 0 8 5 18 10 21 5 3 10 14 10 24 0 10 6
24 14 30 8 6 19 32 25 57 6 25 20 62 31 82 11 20 20 44 20 54 0 9 5 20 10 23
5 3 10 14 10 24 0 10 6 24 14 30 7 6 21 37 31 69 10 31 29 70 42 85 12 16 23
39 23 52 0 14 11 44 25 69 14 25 25 52 25 61 0 9 14 40 30 70 17 30 30 63 30
74 0 11 11 33 25 49 14 17 25 39 25 49 0 11 10 40 23 64 12 24 31 70 41 102
11 31 25 62 33 68 7 6 13 22 13 35 0 13 14 46 30 72 17 27 30 55 30 62 0 6 11
34 25 62 14 27 25 58 25 68 0 10 5 22 10 25 5 3 10 12 10 20 0 7 12 32 27 54
24 37 31 41 67 41 23 0 57 -5 76 -11 19 -6 55 -15 80 -19 25 -5 72 -16 105
-26 33 -9 92 -19 130 -21 39 -3 76 -9 82 -15 7 -6 50 -14 95 -19 46 -4 110
-13 143 -18 33 -5 121 -10 196 -10 80 -1 139 -5 146 -12 17 -17 645 11 681 30
11 6 47 11 79 11 32 1 76 7 98 15 22 8 68 15 102 15 34 0 64 4 67 9 3 5 27 12
53 16 27 4 53 10 58 15 6 4 30 10 55 13 52 6 121 24 167 43 17 8 44 14 61 14
27 0 71 15 112 39 21 12 83 31 102 31 9 0 36 11 59 25 24 14 50 25 58 25 8 0
43 14 78 30 34 17 69 30 76 30 7 0 28 11 47 24 19 13 46 27 60 31 29 8 137 60
154 74 10 8 56 34 136 77 19 11 70 43 113 72 42 28 81 52 85 52 5 0 19 11 32
25 13 14 30 25 37 25 8 0 40 25 72 55 32 30 64 55 71 55 17 0 460 446 460 463
0 8 11 24 25 37 14 13 25 29 25 35 0 7 18 33 40 58 22 25 40 49 40 55 0 5 10
22 22 37 20 26 28 39 73 125 10 19 22 42 26 50 5 8 16 31 25 50 9 19 29 61 45
93 16 31 29 65 29 75 0 9 12 40 25 67 14 28 25 58 25 68 0 19 25 106 40 142
10 22 29 141 36 225 3 30 9 64 15 75 12 25 5 374 -9 465 -6 36 -16 99 -22 140
-6 41 -15 84 -20 95 -16 37 -40 124 -40 144 0 10 -11 41 -24 68 -13 26 -27 62
-31 80 -11 53 29 67 250 90 33 3 66 11 74 16 7 6 36 14 65 18 80 12 149 28
160 39 6 6 20 10 32 10 12 0 38 7 57 15 20 8 46 15 58 15 13 0 30 6 38 13 9 7
36 19 61 26 25 8 67 24 93 37 27 13 54 24 59 24 6 0 33 14 60 30 26 17 53 30
58 30 6 0 28 11 50 25 22 14 45 25 51 25 6 0 24 11 41 25 16 14 42 28 56 32
15 3 38 15 52 25 27 20 64 47 145 102 28 18 61 46 74 60 14 14 31 26 39 26 18
0 412 396 412 414 0 7 11 23 25 36 14 13 25 28 25 35 0 6 13 26 30 45 16 19
29 39 30 43 0 5 11 23 25 41 14 18 25 37 25 41 0 4 11 22 23 39 13 17 29 48
36 68 7 20 18 42 26 48 7 6 21 37 31 68 9 31 22 63 27 70 6 7 19 39 29 70 10
31 23 66 27 77 14 31 33 106 38 150 2 22 8 49 13 60 24 54 34 159 37 389 2
140 0 253 -5 260 -5 6 -13 38 -17 71 -4 33 -11 65 -15 70 -4 6 -10 30 -13 55
-5 47 -23 121 -37 155 -5 11 -18 46 -29 77 -11 32 -25 67 -31 78 -5 11 -14 29
-20 40 -5 11 -10 28 -10 39 0 10 -7 24 -15 31 -8 7 -15 19 -15 28 0 8 -10 29
-22 46 -13 17 -32 49 -42 71 -11 22 -28 50 -39 61 -10 12 -26 35 -35 51 -44
77 -60 101 -102 148 -122 137 -122 149 11 280 55 55 116 123 134 150 19 28 47
63 64 79 17 17 31 34 31 40 0 5 11 21 24 35 50 53 160 229 226 360 103 204
130 262 130 278 0 8 11 33 23 56 13 23 27 62 31 86 3 24 16 62 28 85 11 22 24
66 29 96 12 85 26 141 38 153 6 6 11 29 11 51 0 60 20 205 36 258 17 56 20
478 4 494 -9 9 -22 98 -38 271 -4 40 -13 78 -20 85 -6 6 -12 27 -12 44 0 18
-4 35 -9 38 -4 3 -11 30 -15 61 -3 31 -10 63 -15 73 -17 32 -41 102 -41 121 0
10 -11 39 -25 65 -14 26 -25 55 -25 64 0 20 -133 291 -166 337 -11 17 -31 51
-43 76 -12 26 -30 54 -41 64 -11 10 -20 22 -20 27 0 20 -123 184 -213 285 -38
42 -74 87 -80 100 -5 12 -14 23 -19 23 -5 0 -69 56 -143 125 -73 69 -136 125
-140 125 -4 0 -26 16 -49 35 -60 49 -105 81 -146 104 -19 10 -46 31 -59 45
-14 14 -32 26 -41 26 -9 0 -21 5 -27 11 -13 13 -88 53 -175 95 -32 14 -63 32
-69 40 -6 7 -24 16 -40 19 -16 4 -50 17 -75 31 -25 13 -53 24 -63 24 -10 0
-38 11 -63 24 -25 13 -65 27 -89 31 -24 4 -67 18 -96 31 -30 14 -71 24 -97 24
-25 0 -48 5 -51 10 -3 6 -19 10 -34 10 -15 0 -36 7 -47 15 -11 8 -42 15 -74
15 -30 0 -86 5 -125 10 -38 6 -94 13 -123 17 -37 4 -55 11 -59 22 -3 9 -9 25
-13 36 -5 11 -12 67 -16 125 -3 58 -10 110 -15 115 -8 11 -24 87 -37 181 -5
29 -12 58 -18 65 -6 8 -16 34 -23 59 -7 25 -24 68 -36 95 -13 28 -27 63 -30
78 -10 37 -117 248 -143 282 -12 15 -22 33 -22 40 0 6 -9 20 -20 30 -11 10
-29 38 -42 63 -12 25 -43 69 -69 98 -25 28 -64 76 -87 105 -45 61 -207 221
-267 264 -22 16 -62 50 -90 76 -27 26 -61 53 -75 58 -35 15 -58 30 -111 74
-26 20 -54 37 -64 37 -9 0 -30 9 -46 21 -47 33 -159 89 -179 89 -10 0 -32 11
-48 25 -17 14 -39 25 -49 25 -11 0 -41 11 -66 24 -25 14 -63 28 -84 31 -35 6
-55 13 -108 37 -20 9 -100 24 -180 34 -22 3 -53 11 -70 19 -54 24 -397 39
-607 25 -101 -6 -192 -16 -203 -21 -26 -12 -105 -29 -176 -38 -31 -3 -63 -11
-70 -17 -8 -7 -27 -14 -44 -17 -62 -11 -141 -35 -182 -56 -23 -11 -51 -21 -62
-21 -11 0 -33 -11 -49 -25 -22 -19 -41 -25 -75 -25 -53 0 -57 7 -57 89 0 31
-4 61 -9 67 -5 5 -12 47 -15 94 -11 152 -28 295 -37 315 -12 25 -28 104 -38
175 -4 30 -12 65 -19 78 -26 48 -30 60 -37 112 -8 55 -9 61 -39 117 -9 17 -16
40 -16 52 0 11 -11 41 -25 67 -14 26 -25 53 -25 60 0 7 -16 43 -34 81 -19 37
-40 79 -45 93 -6 14 -15 32 -20 40 -5 8 -21 40 -36 70 -57 115 -106 198 -142
244 -13 16 -23 34 -23 41 0 6 -11 22 -25 35 -14 13 -25 28 -25 32 0 5 -18 31
-40 57 -22 26 -40 51 -40 55 0 20 -184 227 -326 366 -152 148 -230 216 -331
287 -25 17 -57 43 -72 57 -15 14 -31 26 -35 26 -4 0 -22 10 -39 23 -18 12 -48
30 -67 41 -19 10 -48 28 -65 40 -16 12 -106 59 -200 105 -93 46 -177 88 -185
92 -17 10 -10 8 -150 60 -58 21 -114 39 -126 39 -11 0 -24 4 -30 10 -5 5 -30
14 -54 20 -25 5 -74 17 -110 26 -36 9 -81 18 -100 21 -19 2 -49 11 -67 19 -18
8 -63 14 -112 14 -44 0 -90 4 -103 10 -20 8 -96 16 -351 36 -37 3 -73 1 -80
-4 -7 -5 -70 -12 -142 -16 -71 -4 -134 -11 -139 -17 -6 -5 -45 -9 -89 -9 -43
0 -86 -4 -96 -10 -10 -5 -43 -14 -72 -19 -148 -27 -255 -56 -265 -72 -3 -5
-15 -9 -26 -9 -26 0 -83 -17 -121 -36 -16 -8 -35 -14 -43 -14 -7 0 -37 -11
-66 -25 -29 -13 -75 -32 -103 -41 -27 -9 -57 -22 -65 -28 -31 -25 -102 -49
-145 -49 -42 0 -113 23 -145 48 -8 7 -35 20 -60 29 -25 10 -52 23 -60 30 -16
13 -118 56 -185 77 -22 7 -46 18 -54 23 -21 16 -82 35 -134 42 -26 4 -50 11
-53 15 -3 5 -18 9 -33 9 -15 0 -36 7 -47 15 -13 10 -44 14 -97 15 -42 0 -85 4
-95 10 -15 9 -115 21 -282 36 -30 2 -62 0 -70 -6z m154 -374 l40 -14 -40 -5
c-34 -4 -140 -3 -199 2 -19 2 -19 2 -2 12 11 6 38 8 65 4 26 -3 58 -2 72 4 14
5 25 10 25 10 0 0 18 -5 39 -13z m2599 -3 c15 -3 40 0 55 5 20 8 40 8 77 -2
l50 -13 -50 -5 c-48 -5 -198 -5 -260 1 -28 2 -27 3 15 16 25 7 54 11 65 8 11
-3 32 -7 48 -10z m-2865 -50 c2 -8 -6 -13 -20 -14 -12 0 -74 -4 -137 -8 -126
-9 -153 -6 -149 18 4 22 42 27 181 21 84 -3 122 -9 125 -17z m649 2 c23 -24 8
-30 -63 -29 -138 3 -234 15 -234 30 0 10 25 14 113 17 138 4 164 2 184 -18z
m2007 4 c5 -5 8 -10 5 -13 -9 -8 -307 -25 -337 -18 -32 7 -33 8 -15 24 10 9
32 18 48 20 56 6 290 -4 299 -13z m789 -1 c38 -20 13 -28 -85 -28 -261 0 -367
30 -142 40 130 6 199 2 227 -12z m-3776 -55 c8 -22 -140 -46 -160 -26 -4 3 1
15 10 25 14 16 29 19 82 16 38 -2 66 -8 68 -15z m1147 1 c23 -22 11 -34 -33
-34 -58 0 -101 11 -101 26 0 26 110 33 134 8z m1453 -1 c9 -25 -151 -46 -186
-24 -10 7 -8 12 10 25 29 20 170 19 176 -1z m1389 2 c14 -9 22 -20 19 -25 -13
-22 -205 -2 -205 20 0 12 13 15 91 18 52 3 77 -1 95 -13z m-2689 -57 c36 -30
1 -43 -71 -28 -64 13 -71 25 -23 39 35 10 74 6 94 -11z m2871 -5 c22 -21 6
-28 -56 -26 -68 3 -94 11 -89 26 8 26 120 26 145 0z m-4350 0 c-4 -21 -105
-40 -121 -24 -21 21 14 41 70 41 46 0 54 -3 51 -17z m2560 0 c-4 -23 -113 -42
-131 -24 -20 21 20 41 81 41 46 0 53 -3 50 -17z m-2713 -58 c0 -16 -8 -21 -35
-23 -19 -2 -40 -8 -47 -13 -18 -16 -22 23 -4 44 22 26 86 20 86 -8z m1741 8
c22 -29 16 -34 -33 -31 -41 3 -48 6 -51 26 -3 19 1 22 34 22 23 0 42 -6 50
-17z m798 11 c9 -3 16 -12 16 -19 0 -17 -23 -25 -69 -25 -47 0 -56 8 -34 32
16 18 57 24 87 12z m2089 -8 c9 -7 17 -20 17 -27 0 -11 -11 -13 -52 -9 -45 4
-53 8 -56 28 -3 20 1 22 35 22 21 0 46 -7 56 -14z m-2203 -66 c0 -19 -27 -30
-72 -30 -46 0 -32 42 17 52 32 6 55 -3 55 -22z m2324 4 c26 -15 12 -34 -25
-34 -37 0 -69 16 -69 35 0 25 50 25 94 -1z m-4854 3 c0 -21 -22 -37 -52 -37
-21 0 -31 -6 -38 -26 -8 -20 -16 -25 -37 -22 -38 4 -39 24 -2 43 18 10 41 26
52 36 24 22 77 26 77 6z m1970 -17 c16 -16 35 -30 43 -30 18 0 36 -20 31 -34
-7 -18 -63 -7 -77 15 -7 11 -29 24 -49 30 -28 7 -38 15 -38 29 0 33 54 26 90
-10z m440 -34 c0 -19 -20 -33 -57 -38 -40 -5 -51 15 -20 37 27 19 77 20 77 1z
m2540 -1 c39 -20 30 -46 -13 -39 -52 9 -57 12 -57 34 0 24 28 27 70 5z m-5120
-47 c0 -18 -31 -48 -50 -48 -9 0 -26 -13 -38 -30 -13 -16 -28 -30 -34 -30 -6
0 -24 -13 -40 -30 -34 -36 -86 -44 -68 -9 6 11 19 23 28 27 9 3 31 20 47 37
40 41 95 82 120 88 33 8 35 8 35 -5z m5224 -9 c32 -25 34 -49 3 -49 -31 0 -67
27 -67 51 0 25 30 25 64 -2z m-2766 -5 c14 -10 15 -15 4 -26 -17 -17 -182 -24
-211 -9 -26 14 -27 38 -3 44 35 10 194 3 210 -9z m2896 -78 c28 -19 60 -44 71
-56 11 -12 30 -26 43 -31 18 -7 33 -39 18 -39 -19 0 -56 22 -56 34 0 9 -15 17
-39 21 -31 5 -41 12 -43 28 -2 17 -12 23 -38 27 -27 4 -36 10 -38 28 -5 32 21
28 82 -12z m-5594 -100 c0 -22 -27 -39 -45 -28 -16 8 -16 10 0 25 20 21 45 22
45 3z m5823 -63 c142 -130 437 -436 437 -454 0 -10 4 -19 8 -19 5 0 17 -18 28
-40 10 -22 24 -40 29 -40 6 0 19 -15 30 -32 10 -18 30 -41 43 -52 29 -23 28
-71 -3 -71 -15 0 -21 8 -23 33 -2 24 -10 36 -28 44 -13 6 -24 16 -24 21 0 6
-11 25 -25 43 -14 18 -25 37 -25 43 0 18 -34 51 -52 51 -11 0 -18 7 -18 19 0
17 -51 78 -125 153 -10 9 -21 20 -26 25 -4 4 -28 29 -53 56 -25 26 -50 47 -55
47 -6 0 -11 5 -11 12 0 13 -75 80 -102 90 -10 4 -18 16 -18 27 0 14 -9 21 -35
25 -19 4 -35 10 -35 14 1 20 14 52 22 52 5 0 32 -21 61 -47z m-5886 -7 c-7
-17 -47 -22 -47 -7 0 5 7 17 16 26 19 19 40 6 31 -19z m-57 -41 c0 -28 -25
-44 -42 -27 -7 7 -3 17 11 31 27 27 31 26 31 -4z m-50 -61 c0 -8 -7 -17 -15
-21 -9 -3 -29 -24 -44 -47 -16 -22 -48 -61 -71 -86 -23 -25 -48 -57 -56 -72
-8 -16 -23 -28 -34 -28 -15 0 -20 -7 -20 -26 0 -33 -17 -64 -35 -64 -8 0 -15
-9 -15 -21 0 -32 -19 -59 -40 -59 -16 0 -20 -7 -20 -34 0 -32 -20 -66 -39 -66
-4 0 -12 -17 -17 -37 -12 -49 -44 -59 -44 -14 0 29 22 61 41 61 5 0 9 9 9 21
0 22 30 79 41 79 4 0 10 13 14 29 3 15 16 34 29 40 13 7 31 30 40 52 10 21 22
39 27 39 5 0 9 9 9 21 0 11 27 49 63 86 81 86 118 125 140 152 18 23 37 20 37
-5z m6642 -654 c19 -37 16 -50 -11 -50 -21 0 -46 51 -37 76 9 23 29 13 48 -26z
m-7105 -15 c-5 -52 -10 -60 -32 -52 -18 8 -21 67 -3 85 27 27 41 14 35 -33z
m7163 -102 c0 -38 -23 -46 -40 -14 -11 22 -13 64 -3 74 13 14 43 -27 43 -60z
m-7220 -5 c0 -24 -5 -50 -10 -58 -9 -13 -12 -12 -26 5 -17 23 -11 64 13 83 23
17 23 17 23 -30z m7266 -56 c13 -27 6 -82 -11 -82 -17 0 -25 23 -25 72 0 43
17 48 36 10z m-7317 -79 c-1 -57 -9 -78 -29 -78 -22 0 -25 70 -5 101 24 37 35
29 34 -23z m7371 -32 c13 -26 13 -88 -1 -96 -16 -11 -38 26 -39 66 0 51 20 66
40 30z m-7436 -158 c-23 -64 -44 -52 -44 25 0 41 8 57 30 64 25 8 32 -41 14
-89z m7483 39 c28 -18 28 -112 -1 -112 -16 0 -26 30 -26 83 0 37 5 43 27 29z
m-7534 -197 c-1 -50 -6 -81 -14 -86 -21 -12 -26 -3 -33 62 -6 48 -4 66 9 85
28 43 40 24 38 -61z m7591 49 c11 -10 16 -34 16 -70 0 -30 -2 -54 -4 -54 -2 0
-11 -2 -19 -6 -11 -4 -16 9 -21 61 -8 83 -2 99 28 69z m72 -221 c7 -36 -13
-163 -26 -163 -8 0 -20 107 -20 178 0 40 1 41 20 30 11 -7 23 -27 26 -45z
m-7724 -49 c-3 -108 -8 -134 -27 -134 -12 0 -15 15 -17 68 -1 37 -1 76 -1 87
2 35 23 77 36 72 8 -3 11 -29 9 -93z m7780 -322 c-3 -148 -10 -190 -27 -162
-10 17 -26 288 -18 328 l6 34 21 -21 c19 -20 20 -30 18 -179z m-7827 56 c-18
-407 -21 -438 -40 -438 -10 0 -13 47 -14 231 -1 238 6 294 38 302 9 3 17 5 18
6 1 0 0 -45 -2 -101z m7868 -486 c0 -59 -4 -107 -10 -110 -5 -4 -13 -14 -16
-22 -3 -8 -6 55 -6 140 -1 149 0 154 16 125 12 -22 16 -57 16 -133z m1784 -73
c19 -6 30 -15 27 -23 -7 -17 -674 -17 -674 0 0 12 40 29 84 36 48 8 534 -3
563 -13z m-677 -60 c0 -13 -18 -19 -87 -28 -93 -11 -133 -7 -133 14 0 22 51
34 137 32 69 -2 83 -5 83 -18z m937 6 c18 -8 33 -21 33 -29 0 -19 -30 -20
-152 -5 -71 9 -88 15 -88 28 0 15 13 18 87 19 54 0 99 -5 120 -13z m-1184 -53
c-6 -25 -55 -44 -103 -40 -39 3 -40 4 -26 23 10 14 31 21 73 26 32 3 59 7 60
8 0 0 -1 -7 -4 -17z m1358 -2 c37 -20 23 -40 -29 -40 -56 0 -97 23 -72 40 20
13 76 13 101 0z m-10111 -12 c6 -72 30 -445 30 -474 0 -49 -23 -56 -46 -13
-21 41 -19 489 2 489 8 0 14 -1 14 -2z m10234 -38 c16 -6 26 -17 26 -30 0 -16
-6 -20 -32 -20 -52 0 -78 11 -78 30 0 11 9 20 23 23 12 2 25 5 29 6 4 0 18 -3
32 -9z m-1644 -19 c0 -19 -34 -31 -91 -31 -22 0 -29 5 -29 19 0 24 12 29 73
30 40 1 47 -2 47 -18z m-740 -167 c0 -151 -2 -165 -17 -162 -10 2 -20 17 -24
37 -8 37 5 273 16 291 18 29 25 -16 25 -166z m589 127 c25 -16 4 -39 -41 -43
-51 -6 -52 -5 -43 21 8 27 56 39 84 22z m1909 3 c13 -4 22 -14 22 -25 0 -15
-7 -19 -32 -19 -42 0 -63 13 -55 34 7 17 27 20 65 10z m130 -71 c19 -26 15
-33 -22 -33 -61 0 -83 19 -54 48 16 16 58 7 76 -15z m-2138 -2 c0 -16 -9 -21
-45 -26 -37 -6 -44 -11 -42 -28 1 -15 -6 -22 -32 -29 -42 -12 -62 3 -35 26 83
69 154 95 154 57z m2206 -55 c3 -8 20 -18 37 -22 27 -6 77 -48 187 -156 16
-16 33 -28 39 -28 6 0 18 -11 27 -25 9 -14 42 -51 73 -83 122 -127 161 -176
161 -204 0 -40 -26 -35 -40 7 -6 19 -18 35 -26 35 -7 0 -20 14 -29 30 -9 17
-22 30 -30 30 -7 0 -17 9 -20 20 -4 11 -31 45 -61 76 -30 31 -54 60 -54 65 0
5 -6 9 -13 9 -7 0 -30 18 -52 41 -22 22 -46 45 -54 52 -7 7 -25 24 -40 38 -14
14 -38 29 -53 33 -21 5 -28 12 -28 31 0 21 -5 25 -32 25 -39 0 -63 13 -54 29
10 16 56 14 62 -3z m-2377 -45 c21 -14 5 -29 -39 -36 -33 -6 -40 -11 -40 -30
0 -18 -7 -25 -30 -30 -20 -4 -30 -13 -30 -25 0 -21 -37 -37 -51 -23 -16 16 46
85 107 119 67 37 65 37 83 25z m-214 -181 c0 -18 -43 -26 -57 -12 -16 16 2 33
30 30 16 -2 27 -9 27 -18z m-7935 -132 c0 -19 -21 -48 -35 -48 -18 0 -19 11
-4 44 11 23 39 26 39 4z m-83 -94 c8 -24 -63 -31 -331 -33 -277 -3 -278 -3
-260 17 11 11 28 22 39 25 42 10 548 2 552 -9z m-736 -44 c53 0 69 -3 69 -14
0 -19 -17 -23 -130 -31 -98 -6 -127 1 -117 28 7 18 40 27 81 21 16 -2 59 -4
97 -4z m-268 -56 c20 -4 37 -12 37 -19 0 -14 -65 -25 -146 -25 -51 0 -54 1
-42 20 17 27 74 36 151 24z m12191 -40 c6 -10 21 -33 33 -51 24 -34 31 -87 12
-99 -15 -9 -29 15 -29 52 0 22 -8 36 -30 52 -16 13 -30 31 -30 41 0 36 26 39
44 5z m-12377 -31 c5 -14 -99 -37 -133 -29 -21 6 -23 9 -14 27 10 17 20 20 77
17 39 -2 68 -8 70 -15z m-200 -39 c19 -5 21 -10 12 -25 -8 -15 -21 -19 -69
-19 -63 0 -68 3 -47 25 21 21 66 29 104 19z m-143 -60 c23 -9 20 -19 -9 -32
-27 -13 -88 -16 -98 -6 -3 3 -1 15 6 25 12 19 67 26 101 13z m12832 -60 c9
-36 0 -79 -16 -79 -18 0 -28 26 -29 83 -1 40 0 42 19 30 12 -7 23 -23 26 -34z
m-12967 7 c8 -5 11 -16 8 -25 -5 -12 -20 -16 -57 -16 -27 0 -50 4 -50 9 0 17
35 36 75 40 6 0 16 -3 24 -8z m-119 -66 c0 -18 -39 -35 -81 -35 -35 0 -37 12
-6 33 30 21 87 22 87 2z m-115 -60 c0 -17 -8 -20 -55 -23 -54 -3 -54 -3 -36
17 31 34 91 38 91 6z m13256 -12 c13 -34 11 -80 -3 -89 -19 -12 -38 27 -38 78
0 39 3 46 16 41 8 -3 20 -17 25 -30z m-13361 -36 c0 -21 -22 -37 -51 -37 -37
0 -44 15 -17 34 27 19 68 21 68 3z m-112 -64 c-2 -19 -10 -29 -23 -31 -50 -7
-65 -13 -65 -26 0 -15 -21 -26 -51 -26 -13 0 -24 -10 -30 -29 -8 -23 -18 -31
-48 -36 -25 -4 -40 -13 -46 -28 -7 -15 -20 -23 -42 -25 -27 -3 -33 -8 -33 -27
0 -18 -8 -26 -34 -35 -19 -6 -37 -17 -39 -24 -7 -17 -65 -38 -72 -26 -7 12 74
89 112 106 18 7 43 25 58 39 14 15 29 23 35 20 5 -3 16 5 25 19 9 13 30 30 48
37 17 7 39 21 49 31 10 10 29 18 43 18 18 0 28 7 35 24 10 27 35 45 63 46 14
0 18 -6 15 -27z m13530 -61 c13 -47 4 -142 -13 -142 -16 0 -35 81 -35 145 0
37 3 42 19 38 11 -3 23 -20 29 -41z m52 -221 c15 -29 15 -500 -1 -515 -26 -27
-31 19 -34 288 -4 286 -2 296 35 227z m-14084 -77 c-11 -8 -26 -14 -33 -14 -7
0 -13 -4 -13 -9 0 -18 -32 -41 -56 -41 -19 0 -24 -5 -24 -25 0 -18 -7 -28 -25
-35 -14 -5 -25 -16 -25 -24 0 -9 -13 -22 -30 -31 -16 -9 -30 -21 -30 -29 0 -7
-11 -18 -25 -24 -14 -6 -25 -19 -25 -27 0 -9 -11 -20 -25 -25 -14 -5 -30 -21
-36 -34 -6 -13 -20 -27 -31 -29 -11 -3 -22 -15 -25 -26 -3 -12 -12 -21 -20
-21 -7 0 -23 -16 -34 -35 -12 -19 -25 -35 -29 -35 -4 0 -17 -16 -29 -36 -12
-19 -26 -32 -31 -29 -33 20 16 88 197 271 127 129 248 234 268 234 3 0 16 11
28 23 27 29 49 38 62 25 7 -6 3 -14 -9 -24z m14162 -480 c25 -7 31 -44 6 -44
-24 0 -54 19 -54 35 0 16 12 18 48 9z m-14752 -111 c-14 -12 -26 -26 -26 -31
0 -4 -14 -24 -30 -42 -17 -19 -33 -45 -36 -57 -7 -24 -41 -40 -55 -26 -16 16
6 54 70 122 34 35 61 68 61 72 0 5 7 9 15 9 8 0 16 6 16 13 1 6 4 1 6 -13 4
-17 -2 -31 -21 -47z m15398 41 c29 -28 7 -34 -102 -28 -59 3 -146 5 -194 5
-67 1 -88 4 -88 14 0 19 29 22 212 24 131 1 159 -2 172 -15z m-544 -9 c0 -8
-7 -15 -15 -15 -8 0 -15 7 -15 15 0 8 7 15 15 15 8 0 15 -7 15 -15z m770 -45
c17 -26 11 -30 -39 -30 -78 0 -141 11 -141 26 0 17 22 21 103 20 48 -1 71 -6
77 -16z m168 -60 c17 -28 -4 -35 -71 -24 -37 6 -53 14 -55 27 -3 15 5 17 55
17 48 0 60 -4 71 -20z m127 -60 c19 -20 19 -20 -35 -20 -30 0 -62 5 -70 10
-13 9 -12 12 5 26 25 19 72 11 100 -16z m-16067 -52 c2 -9 -10 -31 -26 -50
-16 -18 -33 -43 -37 -56 -3 -13 -18 -28 -31 -34 -16 -7 -24 -20 -24 -35 0 -13
-11 -34 -25 -47 -14 -13 -25 -32 -25 -43 0 -10 -6 -27 -13 -37 -15 -21 -47
-12 -47 14 0 21 39 72 50 65 4 -2 10 8 13 23 3 15 15 37 26 49 11 12 23 33 27
48 3 14 17 33 30 42 13 8 24 22 24 31 0 20 30 54 44 49 6 -2 12 -11 14 -19z
m16178 3 c29 -23 22 -31 -25 -31 -37 1 -71 19 -71 39 0 18 70 13 96 -8z m88
-47 c24 -24 19 -34 -16 -34 -42 0 -63 13 -55 34 8 21 51 21 71 0z m113 -67
c10 -13 35 -32 56 -42 46 -22 47 -35 2 -35 -24 0 -37 6 -45 19 -5 11 -26 25
-45 31 -19 6 -40 20 -45 31 -10 17 -7 19 24 19 24 0 40 -7 53 -23z m206 -146
c31 -31 76 -72 98 -91 60 -51 189 -178 189 -186 0 -3 12 -18 28 -33 75 -74
139 -150 156 -183 11 -21 23 -38 28 -38 4 0 8 -10 8 -23 0 -15 9 -29 26 -38
29 -15 47 -50 38 -74 -14 -35 -54 -7 -54 37 0 21 -6 31 -25 38 -21 8 -25 16
-25 48 0 34 -3 38 -22 38 -17 -1 -27 8 -37 32 -8 17 -20 32 -27 32 -8 0 -19
10 -25 23 -13 23 -48 67 -105 130 -19 21 -32 42 -29 47 3 6 -5 10 -20 10 -20
0 -27 6 -31 30 -5 21 -12 30 -26 30 -11 0 -34 15 -52 33 -18 17 -50 46 -70 62
-48 37 -76 66 -76 77 0 4 -11 8 -25 8 -27 0 -41 20 -31 46 10 25 45 7 109 -55z
m-16813 -110 c0 -29 -22 -61 -41 -61 -13 0 -11 64 3 78 21 21 38 13 38 -17z
m-64 -147 c-3 -8 -15 -14 -26 -14 -17 0 -20 -6 -20 -44 0 -27 -6 -51 -16 -60
-39 -39 -48 35 -9 80 13 15 27 42 31 59 3 16 14 38 23 49 15 17 16 17 19 -19
2 -20 1 -43 -2 -51z m-106 -194 c0 -37 -4 -52 -16 -57 -22 -8 -36 16 -29 52 4
24 28 55 42 55 2 0 3 -23 3 -50z m-55 -138 c-1 -35 -6 -56 -15 -62 -20 -12
-27 -5 -32 32 -7 44 10 90 31 86 12 -3 16 -15 16 -56z m-57 -179 c-20 -59 -43
-50 -43 16 1 41 5 57 20 68 18 13 20 11 27 -16 5 -17 3 -44 -4 -68z m17712 20
c0 -21 -5 -33 -14 -33 -18 0 -26 22 -26 67 0 35 0 36 20 18 12 -11 20 -31 20
-52z m57 -96 c4 -29 2 -38 -11 -43 -24 -9 -27 -4 -33 62 l-5 59 21 -21 c12
-11 24 -37 28 -57z m-17822 -72 c-5 -55 -10 -65 -26 -65 -40 0 -37 114 4 129
12 5 24 7 26 5 2 -2 0 -33 -4 -69z m17875 -53 c0 -36 -3 -43 -17 -40 -14 2
-19 15 -21 61 -3 57 -3 58 17 40 15 -13 21 -29 21 -61z m60 -129 c0 -50 -28
-89 -41 -57 -9 23 -11 118 -3 127 3 3 14 -2 25 -11 13 -11 19 -29 19 -59z
m-17995 -25 c-8 -110 -12 -128 -29 -128 -16 0 -26 -53 -26 -143 0 -77 -19
-207 -30 -207 -15 0 -20 34 -20 149 0 121 12 181 35 181 21 0 26 31 23 123 -3
87 7 117 39 117 13 0 14 -14 8 -92z m18045 -98 c12 -29 9 -134 -5 -148 -14
-14 -29 24 -33 83 -6 95 12 127 38 65z m-5890 -94 c0 -19 -18 -24 -64 -21 -44
4 -56 12 -36 25 24 16 100 12 100 -4z m200 4 c21 -13 12 -17 -50 -24 -56 -7
-88 3 -76 23 9 13 105 14 126 1z m-347 -46 c18 -19 -51 -47 -90 -38 -25 7 -31
29 -10 37 18 8 93 8 100 1z m535 0 c34 -10 26 -31 -14 -39 -42 -7 -114 2 -114
16 0 5 -7 9 -16 9 -8 0 -12 5 -9 10 7 11 116 13 153 4z m140 -60 c6 -2 12 -10
12 -19 0 -23 -82 -20 -104 4 -17 18 -17 19 1 24 17 4 64 0 91 -9z m5420 -27
c5 -18 7 -75 5 -127 -1 -52 -3 -105 -3 -117 0 -42 -27 -26 -34 20 -9 69 -17
247 -11 257 10 17 35 -2 43 -33z m-6235 14 c-3 -11 -14 -21 -25 -23 -12 -2
-26 -11 -32 -21 -17 -28 -116 -127 -127 -127 -5 0 -9 -8 -9 -18 0 -21 -36 -46
-45 -31 -12 18 4 57 25 64 11 3 25 18 32 33 8 15 23 28 36 30 16 3 22 10 22
28 0 19 6 26 30 31 20 3 30 12 30 23 0 20 13 28 47 29 16 1 20 -3 16 -18z
m409 -41 c51 -17 116 -46 144 -64 186 -123 252 -367 153 -566 -35 -71 -118
-165 -164 -187 -16 -8 -43 -22 -60 -30 -19 -10 -72 -20 -140 -25 -158 -11
-205 3 -338 99 -64 46 -125 158 -148 272 -33 156 68 367 214 449 29 17 88 40
132 52 44 12 85 24 90 25 19 6 23 5 117 -25z m529 -11 c11 -18 2 -29 -24 -29
-26 0 -67 26 -67 42 0 15 81 3 91 -13z m83 -45 c9 -3 16 -14 16 -24 0 -13 11
-19 40 -24 31 -5 40 -11 40 -26 0 -12 8 -23 18 -26 53 -18 72 -28 72 -40 0 -8
7 -14 16 -14 8 0 44 -29 79 -65 36 -36 69 -65 75 -65 5 0 10 -4 10 -10 0 -5
16 -25 35 -44 19 -20 35 -40 35 -46 0 -5 9 -10 19 -10 13 0 23 -11 31 -34 6
-19 19 -36 29 -39 17 -4 38 -54 27 -64 -3 -3 -69 61 -148 143 -79 81 -152 155
-162 163 -32 27 -53 48 -62 63 -5 7 -39 28 -75 46 -39 18 -71 42 -79 57 -8 15
-22 25 -35 25 -12 0 -30 9 -40 20 -18 20 -17 20 13 20 17 0 37 -3 46 -6z
m-13003 -576 c0 -258 -4 -455 -9 -460 -5 -5 -15 4 -23 24 -21 49 -20 814 0
876 12 34 16 40 24 27 5 -9 9 -217 8 -467z m11729 397 c0 -19 -2 -35 -4 -35
-2 0 -11 -3 -20 -6 -13 -5 -16 1 -16 28 0 37 6 48 27 48 8 0 13 -12 13 -35z
m-52 -109 c2 -25 -2 -44 -14 -57 -23 -26 -34 -15 -34 35 0 71 42 91 48 22z
m6587 -144 c0 -56 -4 -96 -11 -100 -6 -4 -14 -14 -17 -22 -3 -8 -6 48 -6 125
-1 135 0 139 17 115 13 -20 17 -46 17 -118z m-6645 -14 c-1 -49 -6 -80 -16
-93 -24 -33 -36 -1 -29 80 7 78 10 85 31 85 11 0 14 -16 14 -72z m1978 -148
c3 -44 3 -44 -17 -26 -37 34 -39 81 -3 74 12 -2 18 -16 20 -48z m-2030 -310
c1 -324 1 -340 -17 -340 -25 0 -31 69 -30 329 1 240 8 327 27 324 6 -2 12 4
12 12 0 8 1 15 3 15 2 0 4 -153 5 -340z m2088 245 c3 -13 1 -31 -4 -41 -9 -15
-12 -14 -26 14 -9 17 -16 40 -16 52 0 18 3 19 20 10 11 -6 22 -21 26 -35z
m4566 -106 c6 -142 1 -176 -31 -197 l-23 -16 6 130 c6 123 21 204 36 204 4 0
9 -54 12 -121z m-4508 19 c9 -35 7 -66 -5 -73 -16 -10 -38 26 -39 63 0 25 4
32 19 32 11 0 21 -9 25 -22z m-8504 -36 l35 -6 -35 -8 c-19 -5 -53 -13 -75
-18 -45 -10 -490 -13 -547 -4 -29 5 -34 9 -25 18 7 8 51 13 112 15 55 1 101 4
103 6 6 6 392 3 432 -3z m898 -3 c44 0 42 -26 -3 -35 -62 -11 -423 0 -437 14
-6 6 -26 13 -42 13 l-31 2 35 7 c19 4 127 5 240 3 113 -2 220 -4 238 -4z m263
-61 c22 -6 39 -17 39 -25 0 -10 -20 -13 -84 -13 -91 0 -130 9 -139 34 -6 14 5
16 70 16 41 0 93 -5 114 -12z m-1931 -13 c0 -10 -11 -15 -35 -15 -33 0 -43 8
-28 23 13 14 63 7 63 -8z m9327 -26 c11 -32 17 -139 6 -111 -2 6 -9 10 -14 6
-16 -9 -36 58 -31 104 5 51 22 51 39 1z m-7190 -25 c23 -22 14 -30 -37 -33
-57 -2 -90 12 -90 38 0 15 7 17 57 13 32 -3 63 -11 70 -18z m-2241 -28 c7 -29
-1 -46 -22 -46 -9 0 -14 11 -14 35 0 41 26 49 36 11z m2383 -25 c19 -12 6 -41
-17 -41 -33 0 -82 21 -82 36 0 16 75 20 99 5z m11446 -96 c8 -60 1 -92 -26
-118 -19 -17 -19 -16 -19 60 0 43 3 88 6 100 10 38 32 14 39 -42z m-11341 45
c14 -5 26 -16 26 -25 0 -23 -46 -30 -75 -11 -52 34 -15 61 49 36z m-1481 -16
c26 -12 34 -20 25 -25 -14 -9 -923 -11 -970 -2 -34 6 -37 30 -5 35 12 2 222 4
467 6 402 2 449 1 483 -14z m8477 -13 c6 -11 10 -87 10 -175 0 -132 -2 -157
-17 -171 -16 -16 -17 -16 -24 1 -8 23 -10 251 -2 317 6 50 16 59 33 28z
m-6889 -31 c29 -16 24 -40 -9 -40 -33 0 -72 34 -50 43 21 9 38 8 59 -3z
m-1221 -15 c16 -8 27 -21 25 -28 -8 -19 -325 2 -325 22 0 18 20 21 142 21 95
0 137 -4 158 -15z m-5656 -132 c4 -65 9 -132 12 -150 4 -25 1 -31 -12 -29 -36
5 -44 35 -44 168 0 119 1 128 19 128 17 0 20 -11 25 -117z m5926 77 c40 -22 6
-35 -83 -32 -104 3 -137 10 -137 27 0 25 176 29 220 5z m1059 -9 c18 -17 41
-33 52 -36 10 -4 19 -11 19 -16 0 -12 72 -84 93 -92 9 -3 19 -17 23 -31 3 -13
14 -26 25 -29 11 -3 24 -19 30 -36 7 -20 18 -31 30 -31 13 0 19 -7 19 -22 0
-13 3 -33 6 -45 4 -14 2 -23 -5 -23 -6 0 -11 9 -11 19 0 20 -54 81 -71 81 -5
0 -9 4 -9 9 0 5 -25 33 -56 63 -118 113 -154 152 -154 165 0 7 -10 13 -22 13
-26 1 -61 24 -51 33 15 16 53 5 82 -22z m-860 -42 c19 -7 31 -18 31 -29 0 -17
-7 -18 -62 -14 -35 2 -75 7 -90 10 -26 5 -36 23 -21 37 10 11 107 8 142 -4z
m11929 -68 c3 -41 -16 -81 -40 -81 -9 0 -11 74 -2 108 11 40 39 23 42 -27z
m-11705 -3 l22 -23 -47 -3 c-60 -4 -128 14 -128 33 0 12 15 15 65 15 54 0 69
-4 88 -22z m5203 -35 c19 -26 19 -183 0 -183 -28 0 -45 94 -30 169 7 36 12 38
30 14z m-5039 -14 c7 -6 13 -18 13 -25 0 -15 -23 -17 -94 -8 -35 5 -46 11 -46
25 0 29 94 35 127 8z m153 -54 c6 -3 10 -13 10 -21 0 -10 -12 -14 -42 -14 -61
0 -88 10 -88 30 0 14 8 16 55 14 30 -2 60 -6 65 -9z m11328 -34 c3 -40 -10
-71 -29 -71 -10 0 -12 64 -3 98 10 36 29 20 32 -27z m-11182 -32 c24 -19 16
-29 -23 -29 -52 0 -83 10 -83 26 0 33 68 35 106 3z m6905 -90 c-6 -20 -19 -39
-29 -41 -16 -4 -17 1 -12 51 6 60 16 85 31 76 5 -4 10 0 11 7 0 7 3 -3 5 -22
3 -19 0 -51 -6 -71z m-13662 22 c16 -100 15 -140 -5 -137 -27 4 -34 28 -34
119 0 66 3 87 14 87 9 0 17 -23 25 -69z m6897 12 c17 -17 16 -18 -26 -21 -56
-4 -90 5 -90 23 0 23 93 20 116 -2z m10982 -5 c7 -7 12 -21 12 -33 0 -23 -26
-65 -41 -65 -10 0 -12 53 -3 88 7 25 15 27 32 10z m-6308 -78 c0 -47 -8 -70
-25 -70 -21 0 -36 126 -18 144 14 14 43 -36 43 -74z m-4546 34 c29 -28 19 -37
-39 -32 -61 5 -70 10 -62 33 8 20 80 20 101 -1z m146 -63 c0 -13 -9 -21 -30
-26 -33 -7 -87 1 -95 16 -13 20 9 29 66 29 52 0 59 -2 59 -19z m6438 -13 c4
-31 -32 -78 -48 -62 -8 8 -7 22 6 53 18 45 37 50 42 9z m4222 -4 c0 -24 -8
-46 -25 -66 -14 -16 -25 -36 -25 -43 0 -15 -27 -45 -41 -45 -12 0 -11 47 2 71
7 14 16 18 30 14 16 -6 19 -1 19 30 0 39 15 75 30 75 6 0 10 -16 10 -36z
m-6224 -42 c16 -10 26 -49 19 -72 -5 -16 -10 -18 -26 -10 -14 8 -19 21 -19 50
0 40 5 46 26 32z m-11546 -82 c9 -66 5 -90 -14 -90 -34 0 -49 116 -20 145 9 9
18 14 21 12 2 -3 8 -33 13 -67z m13490 42 c0 -30 -16 -52 -37 -52 -18 0 -16
31 3 58 21 30 34 28 34 -6z m-1870 -108 c7 -19 20 -39 31 -44 23 -13 27 -70 5
-70 -16 0 -26 21 -26 56 0 17 -6 24 -20 24 -23 0 -43 34 -35 60 9 27 32 14 45
-26z m1810 27 c0 -30 -11 -51 -26 -51 -7 0 -21 -13 -31 -30 -9 -16 -25 -30
-34 -30 -9 0 -19 -7 -23 -15 -5 -15 -36 -21 -36 -7 0 4 25 32 56 62 31 30 60
63 65 73 13 23 29 22 29 -2z m4230 -22 c0 -24 -13 -47 -55 -94 -30 -35 -55
-67 -55 -72 0 -5 -10 -15 -23 -22 -12 -6 -30 -25 -39 -41 -9 -17 -24 -30 -32
-30 -30 0 -26 21 11 58 21 20 44 46 51 57 7 11 22 35 33 53 12 18 30 37 40 43
11 5 19 14 19 19 0 23 21 60 35 60 10 0 15 -10 15 -31z m-17601 -109 c10 -45
3 -95 -12 -95 -13 0 -36 42 -37 66 0 34 20 90 30 84 5 -3 13 -27 19 -55z
m13211 -30 c0 -13 -7 -20 -20 -20 -22 0 -28 25 -7 33 22 10 27 7 27 -13z
m-1495 -72 c41 -40 80 -74 87 -76 7 -2 19 -11 26 -20 11 -15 10 -17 -13 -20
-27 -4 -55 12 -55 32 -1 6 -15 20 -33 31 -18 11 -36 30 -42 43 -5 12 -15 22
-22 22 -13 0 -33 30 -33 49 0 19 8 13 85 -61z m1437 26 c-5 -26 -7 -28 -54
-38 -16 -4 -28 -13 -28 -21 0 -18 -30 -35 -57 -32 -30 2 -18 23 28 49 21 12
39 26 39 31 0 15 33 36 56 37 17 0 20 -5 16 -26z m-13101 -51 c5 -15 9 -47 7
-72 l-3 -46 -22 23 c-17 16 -23 34 -23 65 0 63 22 79 41 30z m17329 -47 c0 -8
-8 -21 -18 -28 -11 -7 -24 -22 -30 -34 -6 -11 -37 -41 -69 -65 -32 -24 -67
-54 -79 -66 -12 -13 -26 -23 -33 -23 -6 0 -11 -7 -11 -15 0 -8 -4 -15 -8 -15
-5 0 -32 -20 -61 -45 -29 -25 -57 -45 -62 -45 -20 0 -22 33 -3 46 50 34 109
82 132 107 14 15 36 27 49 27 18 0 23 6 23 24 0 19 6 25 28 28 19 2 28 9 30
26 2 13 14 27 28 32 13 5 29 21 34 35 10 27 50 36 50 11z m-4400 -9 c0 -22
-23 -37 -57 -37 -38 0 -42 12 -11 34 27 19 68 21 68 3z m-1052 -74 c14 -23 14
-23 -24 -23 -48 0 -67 11 -58 34 9 25 63 17 82 -11z m942 8 c0 -23 -19 -31
-71 -31 -36 0 -38 1 -27 20 21 34 98 43 98 11z m-12761 -33 c6 -19 7 -45 3
-62 l-8 -30 -22 22 c-24 24 -28 52 -12 83 15 28 27 24 39 -13z m11935 -24 c9
-8 14 -20 11 -25 -15 -23 -105 0 -105 26 0 21 73 20 94 -1z m694 -1 c-3 -19
-35 -31 -89 -32 -45 -1 -54 7 -32 31 23 25 126 27 121 1z m-158 -58 c0 -18
-31 -23 -180 -29 -122 -5 -314 4 -325 16 -24 23 20 28 256 28 211 0 249 -2
249 -15z m-12414 -39 c3 -13 4 -38 2 -55 l-3 -32 -22 21 c-22 20 -31 69 -16
83 14 14 33 6 39 -17z m55 -113 c13 -35 8 -57 -14 -61 -20 -4 -41 41 -32 69 9
28 34 23 46 -8z m16699 -98 c0 -24 -5 -35 -14 -35 -21 0 -29 17 -22 46 10 38
36 30 36 -11z m-16641 -47 c1 -42 -4 -46 -31 -21 -23 21 -24 69 0 82 21 12 30
-6 31 -61z m16710 -28 c5 0 22 -13 39 -30 18 -16 36 -30 41 -30 14 0 22 -43
10 -55 -7 -7 -17 -1 -33 18 -12 15 -27 27 -33 27 -6 0 -15 9 -18 20 -3 11 -15
20 -26 20 -13 0 -19 7 -19 21 0 15 4 19 16 15 9 -3 19 -6 23 -6z m-16675 -16
c9 -8 16 -32 16 -52 l-1 -37 -19 24 c-11 13 -20 36 -20 52 0 33 3 35 24 13z
m66 -93 c14 -28 13 -74 -2 -69 -20 7 -42 53 -35 71 9 23 24 21 37 -2z m16754
-20 c19 -21 14 -41 -8 -41 -20 0 -39 27 -32 45 7 20 19 19 40 -4z m47 -51 c10
-6 19 -15 19 -21 0 -5 29 -39 65 -75 44 -44 65 -74 65 -90 0 -13 6 -24 13 -24
6 0 21 -18 31 -40 11 -22 24 -40 29 -40 18 0 36 -34 37 -67 0 -18 5 -33 11
-33 19 0 38 -33 39 -67 0 -68 -45 -45 -57 29 -3 21 -10 38 -16 38 -16 0 -36
33 -37 61 0 17 -9 33 -24 43 -16 10 -26 27 -28 48 -2 25 -8 34 -25 36 -13 2
-24 13 -27 27 -4 14 -17 32 -31 41 -14 9 -25 21 -25 28 0 6 -16 27 -35 46 -19
19 -35 42 -35 52 0 21 4 22 31 8z m-16743 -47 c2 -23 9 -33 28 -37 16 -4 29
-19 40 -45 9 -22 22 -42 30 -45 8 -3 14 -13 14 -23 0 -10 16 -32 35 -48 19
-17 35 -38 35 -48 0 -10 11 -22 25 -27 14 -5 25 -14 25 -20 0 -6 14 -24 30
-42 17 -17 30 -35 30 -39 0 -27 -62 9 -106 61 -12 14 -31 36 -43 49 -12 13
-21 35 -21 48 0 13 -4 22 -10 18 -5 -3 -18 12 -29 33 -11 22 -27 42 -36 45 -8
4 -21 19 -28 34 -6 15 -22 36 -34 46 -29 23 -33 80 -5 75 11 -2 18 -14 20 -35z
m348 -448 c7 -27 -8 -80 -22 -80 -5 0 -10 24 -12 53 -2 41 0 52 12 52 9 0 18
-11 22 -25z m16758 -47 c13 -37 -4 -111 -23 -99 -14 9 -34 108 -25 123 11 17
39 3 48 -24z m-16811 -106 c-7 -54 -18 -73 -39 -65 -20 7 -9 81 15 104 24 25
31 13 24 -39z m16867 -134 c0 -68 -3 -88 -14 -88 -17 0 -22 22 -32 117 -8 83
-1 102 27 77 16 -14 19 -31 19 -106z m-16925 -55 c-6 -54 -9 -63 -27 -63 -19
0 -20 5 -16 70 3 55 8 73 23 84 18 13 20 13 23 -7 2 -11 1 -49 -3 -84z m16983
-327 c2 -202 0 -251 -12 -281 -9 -20 -20 -34 -26 -30 -11 7 -15 567 -3 579 4
3 14 -1 22 -9 14 -13 16 -55 19 -259z m-17038 180 c0 -67 -21 -156 -37 -156
-9 0 -14 -19 -15 -57 -2 -68 -2 -66 -12 -210 -7 -95 -11 -113 -25 -113 -14 0
-16 19 -18 151 -3 154 1 173 38 210 20 20 24 44 20 122 -3 55 13 104 35 104
10 0 14 -13 14 -51z m8744 -16 c14 -5 26 -17 26 -25 0 -13 -11 -15 -62 -13
-65 3 -87 21 -46 37 31 13 51 13 82 1z m-110 -49 c10 -15 -4 -40 -26 -47 -29
-9 -40 8 -22 34 16 23 39 29 48 13z m214 -54 c6 -6 14 -25 17 -40 4 -15 16
-32 26 -38 11 -6 21 -25 25 -49 5 -29 12 -40 27 -42 12 -2 24 -14 29 -30 5
-15 23 -42 39 -59 29 -31 36 -53 21 -63 -10 -6 -100 93 -122 133 -45 85 -60
107 -79 119 -13 8 -21 22 -21 40 0 41 17 54 38 29z m-283 -7 c10 -16 -15 -40
-41 -40 -31 0 -32 28 -1 40 30 12 35 12 42 0z m-81 -81 c-9 -10 -22 -19 -29
-19 -6 0 -18 -11 -25 -25 -7 -14 -16 -25 -19 -25 -3 0 -21 -14 -40 -30 -40
-35 -81 -40 -81 -10 0 15 9 22 31 27 20 4 34 14 40 29 4 13 15 24 23 24 9 0
25 14 38 30 12 17 30 30 40 30 10 0 18 6 18 13 0 6 5 4 11 -6 8 -14 7 -23 -7
-38z m-214 -159 c-6 -11 -18 -20 -27 -20 -9 0 -29 -16 -46 -35 -33 -39 -62
-45 -72 -15 -9 29 2 40 41 40 26 0 34 4 34 18 0 26 9 32 47 32 31 0 33 -2 23
-20z m-1810 0 c0 -5 -9 -10 -20 -10 -11 0 -20 5 -20 10 0 6 9 10 20 10 11 0
20 -4 20 -10z m70 -72 c23 -24 27 -58 7 -58 -21 0 -37 22 -37 52 0 34 3 34 30
6z m2162 -19 c-1 -18 1 -30 4 -26 10 10 44 -22 44 -41 0 -8 13 -29 29 -48 20
-22 28 -40 24 -53 -4 -15 2 -24 22 -33 15 -6 35 -29 46 -50 11 -21 23 -38 28
-38 14 0 23 -32 12 -43 -13 -13 -41 9 -41 34 0 11 -9 19 -22 21 -16 2 -26 13
-33 36 -5 17 -12 32 -16 32 -19 0 -39 35 -39 67 0 20 -3 33 -6 30 -11 -11 -44
13 -44 31 0 30 -19 41 -53 31 -60 -17 -60 -10 -7 50 41 47 56 47 52 0z m398
-24 c0 -18 4 -23 16 -18 10 3 30 -11 59 -41 25 -25 47 -46 51 -46 6 0 23 -14
85 -72 16 -16 38 -28 48 -28 10 0 24 -7 32 -16 10 -13 10 -17 -2 -25 -26 -16
-55 -9 -81 19 -39 41 -97 92 -104 92 -10 0 -154 148 -154 158 0 17 13 21 31
11 11 -5 19 -21 19 -34z m-2730 -15 c0 -52 -12 -64 -30 -31 -14 27 -13 68 3
74 24 10 27 6 27 -43z m1740 20 c-6 -11 -17 -20 -25 -20 -8 0 -15 -4 -15 -9 0
-20 -54 -61 -82 -61 -25 0 -29 4 -26 23 2 15 14 25 37 33 19 6 39 18 45 26 11
15 33 24 64 27 10 1 10 -4 2 -19z m2754 4 c25 -10 8 -24 -30 -24 -32 0 -42 8
-27 23 8 9 36 9 57 1z m-4209 -79 c28 -25 71 -56 98 -68 50 -23 62 -51 27 -62
-23 -7 -67 17 -77 41 -3 8 -11 14 -18 14 -8 0 -26 15 -42 34 -15 18 -38 36
-49 40 -22 7 -34 31 -27 53 6 17 26 5 88 -52z m1943 6 c-2 -9 -17 -20 -35 -25
-17 -5 -36 -20 -42 -33 -8 -17 -19 -23 -41 -23 -16 0 -30 4 -30 9 0 14 29 41
43 41 7 0 18 9 25 20 24 38 87 47 80 11z m2362 -35 c0 -37 -12 -66 -26 -66
-10 0 -14 14 -14 48 0 27 3 52 7 55 10 11 33 -14 33 -37z m6030 -34 c0 -65 -3
-82 -19 -96 -18 -17 -20 -16 -26 4 -4 11 -3 54 0 95 6 64 10 75 26 75 17 0 19
-8 19 -78z m-10549 15 c7 -12 23 -32 36 -44 12 -12 23 -29 23 -38 0 -8 6 -15
13 -15 7 0 21 -14 31 -31 25 -43 243 -259 261 -259 7 0 18 -6 22 -13 4 -7 23
-19 41 -26 36 -15 60 -47 40 -53 -26 -9 -68 5 -68 22 0 22 -16 35 -52 44 -16
3 -28 12 -28 20 0 7 -16 21 -35 32 -20 10 -43 29 -51 42 -8 12 -19 22 -25 22
-12 0 -79 69 -79 80 0 4 -18 25 -40 48 -22 22 -40 48 -40 56 0 9 -11 21 -24
26 -14 5 -26 19 -28 32 -2 15 -11 24 -25 26 -21 3 -39 43 -28 62 9 14 42 -6
56 -33z m1496 18 c8 -22 -25 -44 -64 -45 -21 0 -33 -5 -33 -13 0 -17 -35 -34
-78 -40 -29 -3 -33 -1 -30 17 2 17 15 24 61 35 33 8 57 19 57 26 0 13 40 32
68 34 7 1 15 -6 19 -14z m2783 -34 c20 -39 10 -61 -72 -146 -70 -73 -87 -85
-115 -85 -27 0 -33 4 -33 20 0 21 4 24 53 34 15 4 27 11 27 17 0 6 23 32 50
59 28 27 50 57 50 68 0 49 22 67 40 33z m-10820 -227 c0 -186 -5 -254 -20
-254 -27 0 -40 308 -18 427 11 60 13 63 24 41 10 -16 13 -78 14 -214z m8535
186 c0 -8 -13 -19 -30 -25 -16 -5 -38 -20 -48 -32 -23 -29 -80 -33 -75 -5 2 9
18 21 36 27 17 5 32 13 32 18 0 17 35 37 60 34 14 -1 25 -8 25 -17z m-1521
-40 c5 -5 6 -16 3 -24 -9 -23 -70 -21 -91 3 -17 18 -17 20 1 30 19 11 71 5 87
-9z m806 2 c0 -35 -94 -58 -107 -27 -8 22 1 28 55 36 26 3 48 7 50 8 1 0 2 -7
2 -17z m3190 -42 c0 -54 -13 -89 -38 -106 l-25 -16 6 61 c4 34 11 71 17 81 14
27 40 14 40 -20z m-3792 -16 c13 -3 22 -10 19 -17 -2 -8 -34 -13 -94 -15 -73
-2 -92 0 -103 13 -12 14 -11 18 1 26 13 8 123 4 177 -7z m471 7 c12 -8 12 -12
2 -25 -19 -23 -201 -24 -201 -1 0 16 22 23 90 28 88 7 95 7 109 -2z m1884 -2
c54 -15 45 -49 -12 -49 -22 0 -55 35 -46 49 8 13 11 13 58 0z m7461 -5 c18
-46 -1 -124 -29 -124 -23 0 -27 17 -14 80 11 59 30 78 43 44z m-8673 -16 c-5
-14 -21 -26 -42 -31 -19 -5 -44 -19 -55 -33 -12 -13 -30 -24 -40 -24 -24 0
-39 -10 -47 -33 -5 -14 -15 -17 -39 -15 -17 2 -33 8 -35 14 -4 13 34 34 65 37
12 0 22 7 22 15 0 7 15 19 34 27 18 8 41 26 50 40 13 20 25 25 56 25 36 0 39
-2 31 -22z m-903 -37 c21 -13 -10 -21 -78 -21 -32 0 -66 3 -75 6 -31 12 6 24
75 24 36 0 71 -4 78 -9z m1612 -38 c0 -29 -35 -8 -38 22 -4 30 -4 30 17 11 12
-11 21 -25 21 -33z m649 38 c26 -17 4 -41 -37 -41 -38 0 -80 28 -65 43 9 10
86 8 102 -2z m-599 -93 c0 -16 -3 -17 -20 -8 -12 7 -20 21 -20 37 0 25 0 26
20 8 11 -10 20 -27 20 -37z m1452 44 c25 -11 -3 -44 -39 -45 -98 -4 -173 4
-173 17 0 20 174 43 212 28z m-594 -9 c59 -4 82 -10 82 -19 0 -11 -24 -14
-107 -15 -60 -1 -121 0 -138 1 -32 2 -69 23 -58 33 8 9 113 9 221 0z m962 -23
c0 -29 -11 -50 -26 -50 -17 0 -18 33 -2 59 14 23 28 18 28 -9z m6038 -44 c4
-42 -10 -65 -39 -63 -23 2 -24 25 -4 73 18 45 39 40 43 -10z m-8908 9 c7 -8
10 -21 7 -29 -7 -16 -69 -32 -86 -21 -16 9 5 44 32 55 31 12 33 12 47 -5z
m1117 -12 c61 -43 77 -57 89 -78 6 -11 19 -22 30 -25 10 -3 29 -14 41 -24 12
-11 32 -21 43 -23 34 -5 60 -22 60 -39 0 -25 -74 -15 -79 11 -4 25 -19 35 -53
35 -18 0 -33 9 -44 24 -8 14 -29 28 -45 31 -19 4 -29 13 -29 25 0 12 -13 25
-35 36 -22 10 -35 23 -35 35 0 25 10 24 57 -8z m1123 21 l32 -7 -39 -14 c-50
-19 -160 -19 -196 0 -25 13 -26 16 -10 20 28 7 177 8 213 1z m570 -64 c0 -23
-6 -33 -25 -40 -14 -5 -25 -16 -25 -23 0 -21 -65 -51 -71 -32 -3 9 100 124
114 124 4 1 7 -13 7 -29z m-2920 0 c27 -17 -2 -45 -49 -48 -37 -3 -42 -1 -39
15 3 17 41 43 63 43 6 0 17 -5 25 -10z m8966 -45 c8 -21 -15 -75 -32 -75 -7 0
-21 -16 -30 -35 -17 -37 -44 -47 -44 -17 0 9 11 30 25 46 14 17 28 41 32 55 3
14 8 29 10 34 7 13 33 8 39 -8z m-9072 -27 c13 -22 7 -27 -37 -35 -46 -7 -69
1 -60 22 13 35 78 43 97 13z m-741 -60 l22 -23 -39 -3 c-46 -4 -83 21 -56 38
24 16 49 11 73 -12z m624 6 c8 -22 -14 -34 -64 -34 -43 0 -49 5 -35 26 17 27
89 32 99 8z m3003 -8 c0 -15 -21 -26 -51 -26 -21 0 -22 1 -13 24 8 20 64 22
64 2z m-3129 -47 c42 -27 -107 -44 -317 -37 -133 5 -179 16 -144 38 18 11 443
11 461 -1z m1963 -5 c25 -25 9 -36 -42 -28 -46 7 -66 20 -56 36 9 14 82 9 98
-8z m1076 2 c0 -19 -54 -40 -85 -32 -23 6 -24 7 -8 26 21 24 93 29 93 6z
m-10605 -98 c13 -186 14 -203 9 -230 -3 -16 -11 -28 -19 -28 -25 0 -34 56 -34
200 1 80 3 148 5 152 3 5 11 8 18 8 10 0 15 -28 21 -102z m16775 53 c0 -27
-234 -274 -398 -420 -54 -48 -76 -61 -101 -61 -46 0 -38 31 11 43 22 5 38 16
41 28 3 10 17 23 31 29 14 5 26 17 26 25 0 9 8 18 18 22 19 7 38 22 105 88 26
26 47 51 47 56 0 5 6 9 14 9 8 0 24 16 36 35 12 19 28 35 35 35 7 0 18 14 24
30 5 17 17 30 26 30 9 0 18 12 22 31 9 45 63 62 63 20z m-7021 -19 c26 -17 25
-17 -59 -20 -97 -3 -130 2 -130 23 0 10 16 15 53 18 70 5 106 0 136 -21z m725
14 c5 -1 1 -10 -8 -19 -14 -13 -36 -17 -102 -17 -46 0 -84 4 -84 8 0 9 32 27
59 34 14 4 114 -1 135 -6z m-236 -53 c47 -11 18 -20 -105 -32 -94 -9 -155 -9
-227 -1 -104 11 -120 15 -96 30 15 9 391 12 428 3z m-10178 -397 c0 -75 -3
-93 -15 -93 -30 0 -47 114 -25 171 6 17 14 24 25 20 12 -5 15 -25 15 -98z
m16180 -43 c0 -15 -16 -30 -50 -49 -19 -10 -39 -25 -45 -32 -15 -19 -52 -22
-66 -6 -10 13 -10 17 2 25 8 5 22 9 31 9 30 0 48 12 48 30 0 18 17 25 63 29 9
0 17 -2 17 -6z m-16131 -114 c6 -18 11 -53 11 -80 0 -41 -2 -47 -19 -42 -23 6
-31 31 -31 101 0 61 21 72 39 21z m15951 1 c0 -19 -40 -50 -65 -50 -20 0 -25
5 -25 24 0 26 13 33 63 35 15 0 27 -3 27 -9z m-120 -68 c0 -33 -75 -56 -86
-27 -10 24 15 45 52 45 26 0 34 -4 34 -18z m-110 -52 c0 -27 -39 -44 -84 -36
-67 13 -33 49 51 54 27 2 33 -1 33 -18z m-15657 -73 c7 -46 -2 -87 -19 -80
-21 8 -36 66 -25 96 13 35 37 26 44 -16z m15510 16 c-10 -27 -23 -33 -80 -33
-38 0 -53 4 -53 13 0 20 39 36 92 36 41 1 47 -1 41 -16z m-186 -76 c-18 -14
-39 -17 -113 -15 -69 2 -90 6 -87 15 7 17 37 24 131 32 84 7 106 -3 69 -32z
m-223 -34 c3 -7 -6 -20 -19 -29 -22 -14 -49 -16 -208 -11 -100 4 -188 7 -194
7 -7 0 -13 4 -13 9 0 14 75 23 245 30 88 3 165 6 172 7 7 0 14 -5 17 -13z
m-15054 -22 c5 -11 10 -38 10 -60 0 -33 -3 -41 -19 -41 -20 0 -31 25 -31 76 0
47 21 60 40 25z m14403 9 c15 0 27 -4 27 -10 0 -6 -33 -10 -80 -10 -67 0 -80
3 -80 16 0 14 8 16 53 10 28 -3 64 -6 80 -6z m-183 -130 c0 -37 -4 -50 -15
-50 -18 0 -29 41 -21 75 4 14 13 25 21 25 11 0 15 -13 15 -50z m-14160 -19
c12 -24 13 -68 1 -75 -29 -19 -59 40 -40 76 13 23 26 23 39 -1z m14216 -66
c21 -31 12 -57 -18 -53 -19 2 -24 10 -26 41 -4 45 18 51 44 12z m-14155 -70
c6 -33 1 -55 -11 -55 -19 0 -40 33 -40 61 0 26 3 30 22 27 16 -2 25 -12 29
-33z m14195 -3 c6 -4 15 -18 19 -32 4 -14 18 -39 31 -57 13 -17 24 -43 24 -56
0 -13 11 -36 25 -50 32 -32 48 -127 22 -127 -17 0 -35 48 -39 105 -2 17 -9 31
-15 31 -7 1 -17 2 -23 3 -5 0 -12 24 -16 51 -4 32 -11 50 -20 50 -17 0 -34 32
-34 64 0 27 7 31 26 18z m-14142 -102 c5 -31 12 -43 31 -50 20 -8 25 -16 25
-46 0 -44 -18 -42 -42 5 -9 18 -26 42 -37 52 -27 26 -29 79 -2 79 14 0 20 -10
25 -40z m104 -152 c7 -7 12 -20 12 -30 0 -10 11 -28 25 -40 14 -12 25 -29 25
-38 0 -9 14 -29 30 -45 17 -16 30 -36 30 -45 0 -9 11 -22 25 -28 14 -6 25 -16
25 -21 0 -10 64 -83 111 -127 28 -27 79 -91 79 -100 0 -34 -35 -23 -56 17 -8
16 -21 29 -29 29 -8 0 -15 4 -15 9 0 6 -27 38 -61 73 -34 35 -72 79 -85 100
-13 20 -28 39 -34 43 -5 3 -10 17 -10 31 0 14 -6 24 -14 24 -7 0 -25 18 -40
40 -14 22 -31 40 -36 40 -14 0 -28 40 -22 62 5 21 23 23 40 6z m14223 -110 c6
-11 8 -41 3 -74 -6 -54 -7 -55 -25 -36 -11 12 -20 44 -25 80 -6 59 -6 61 15
55 12 -3 26 -14 32 -25z m49 -173 c5 -13 9 -78 10 -146 2 -161 2 -159 -13
-159 -10 0 -16 37 -25 143 -7 78 -12 151 -12 163 0 28 29 27 40 -1z m-13864
-231 c8 -11 10 -25 5 -33 -12 -19 -53 22 -45 44 8 19 23 15 40 -11z m60 -59
c9 -14 22 -25 29 -25 8 0 17 -9 20 -20 3 -11 13 -20 20 -20 8 0 19 -9 25 -20
6 -11 17 -20 24 -20 8 0 21 -11 30 -25 10 -14 28 -30 42 -35 13 -5 24 -16 24
-25 0 -8 16 -21 36 -30 37 -15 45 -47 13 -53 -16 -3 -39 15 -144 116 -33 32
-68 61 -78 65 -11 4 -21 16 -24 27 -3 11 -11 20 -19 20 -17 0 -48 46 -39 60
10 16 23 12 41 -15z m13814 -402 c0 -149 -5 -175 -34 -179 -20 -3 -20 1 -4
184 9 105 15 142 25 142 10 0 13 -32 13 -147z m-13446 98 c15 -16 41 -31 57
-35 21 -4 29 -11 29 -26 0 -14 7 -20 23 -20 28 -1 61 -25 52 -39 -10 -17 -36
-13 -74 12 -20 12 -45 27 -56 33 -11 6 -24 20 -30 32 -5 12 -17 22 -26 22 -19
0 -52 34 -42 43 14 15 40 6 67 -22z m254 -168 c3 -20 -1 -23 -27 -23 -29 0
-61 22 -61 41 0 6 19 9 43 7 35 -2 43 -7 45 -25z m109 -43 c2 0 3 -6 3 -14 0
-31 -50 -28 -82 5 -17 17 -17 18 0 21 9 2 30 1 47 -4 16 -4 31 -8 32 -8z m97
-46 c17 -7 22 -39 7 -48 -15 -9 -81 23 -81 39 0 16 43 21 74 9z m124 -60 c6
-2 12 -12 12 -22 0 -26 -51 -27 -81 -2 -39 32 -1 46 69 24z m12807 -40 c8 -54
-8 -100 -37 -107 -18 -5 -19 -2 -13 46 10 87 16 107 30 107 8 0 15 -18 20 -46z
m-12681 -10 c25 -9 19 -41 -8 -48 -33 -8 -83 11 -89 35 -4 17 0 19 38 19 24 0
50 -3 59 -6z m109 -54 c50 -1 91 -25 67 -40 -36 -23 -125 -2 -133 31 -4 15 -2
19 10 15 8 -3 33 -6 56 -6z m227 -62 c51 -9 70 -16 70 -28 0 -11 -13 -15 -58
-17 -69 -2 -119 12 -132 38 -10 17 -7 19 19 19 17 0 62 -5 101 -12z m12288
-51 c2 -27 -3 -42 -20 -59 l-23 -23 -3 42 c-3 46 12 87 31 80 7 -2 13 -20 15
-40z m-11988 -9 c43 -8 70 -17 70 -25 0 -9 -31 -12 -130 -10 -126 2 -161 11
-146 36 9 15 118 14 206 -1z m1249 1 c17 -6 31 -15 31 -19 0 -15 -31 -20 -121
-20 -72 0 -89 3 -89 15 0 10 10 15 28 15 15 0 34 5 42 10 20 13 70 13 109 -1z
m-673 -52 c243 0 448 -3 455 -8 10 -6 3 -12 -23 -24 -55 -22 -827 -23 -882 0
-40 17 -52 52 -14 39 12 -3 220 -6 464 -7z m11354 -62 c0 -23 -9 -43 -30 -65
-16 -18 -30 -40 -30 -50 0 -10 -7 -23 -14 -30 -8 -6 -20 -27 -26 -46 -10 -29
-35 -54 -54 -54 -3 0 -6 13 -6 28 0 34 20 65 40 60 9 -2 16 6 18 22 6 57 13
70 32 70 14 0 20 7 20 22 0 12 5 36 12 54 14 41 38 34 38 -11z m-10552 -49
c22 -120 12 -172 -26 -134 -13 13 -17 179 -5 191 14 15 20 4 31 -57z m61 -226
c16 -75 14 -109 -5 -106 -34 5 -53 75 -38 134 11 38 32 25 43 -28z m10321 7
c0 -13 -8 -32 -19 -41 -17 -16 -19 -16 -24 5 -3 12 -2 31 4 41 14 26 39 23 39
-5z m-50 -82 c0 -16 -40 -64 -135 -161 -74 -77 -135 -142 -135 -146 0 -5 -4
-8 -9 -8 -5 0 -35 -25 -67 -55 -62 -58 -104 -72 -104 -36 0 12 9 23 22 27 13
4 35 19 49 33 15 14 32 31 38 36 5 6 18 19 29 30 10 11 49 47 85 80 37 33 67
63 67 68 0 13 83 97 96 97 7 0 15 12 19 27 12 48 45 53 45 8z m-10205 -112 c8
-56 -5 -75 -35 -48 -22 20 -26 55 -10 85 16 30 37 13 45 -37z m49 -89 c3 -9 6
-28 6 -44 0 -19 8 -33 25 -44 17 -11 25 -26 25 -46 0 -23 7 -33 30 -45 17 -9
30 -24 30 -34 0 -33 11 -51 31 -51 16 0 19 -7 19 -41 0 -33 3 -40 18 -37 22 3
42 -9 42 -28 0 -16 75 -94 90 -94 6 0 10 -4 10 -9 0 -14 204 -221 218 -221 7
0 15 -7 19 -16 3 -8 17 -20 30 -25 14 -5 30 -23 36 -39 9 -23 17 -30 39 -30
18 0 28 -5 28 -14 0 -8 15 -20 34 -27 19 -7 40 -22 46 -34 7 -13 27 -26 48
-31 22 -5 38 -16 40 -26 5 -28 -61 -24 -85 5 -10 12 -28 27 -38 33 -11 6 -24
20 -30 32 -5 12 -18 22 -27 22 -39 0 -136 79 -316 260 -105 106 -196 205 -203
223 -7 17 -19 36 -26 40 -7 4 -13 18 -13 31 0 14 -9 27 -23 33 -12 6 -31 28
-42 49 -11 22 -26 43 -32 47 -7 4 -13 16 -13 27 0 10 -16 35 -35 56 -19 20
-35 43 -35 50 0 25 13 44 30 44 10 0 21 -7 24 -16z m9696 -238 c0 -22 -17 -36
-41 -36 -30 0 -41 23 -16 33 15 7 57 8 57 3z m-67 -52 c6 -6 -23 -44 -35 -44
-4 0 -27 -14 -51 -30 -43 -31 -77 -33 -77 -5 0 15 22 25 55 25 14 0 25 7 28
20 7 26 64 50 80 34z m-4279 -60 c9 -3 16 -12 16 -19 0 -17 -23 -25 -75 -25
-56 0 -75 8 -75 31 0 17 8 19 59 19 33 0 66 -3 75 -6z m4106 -48 c0 -29 -50
-67 -87 -65 -10 0 -13 3 -5 6 6 2 12 15 12 28 0 18 6 25 28 28 45 7 52 7 52 3z
m-4260 -25 c0 -11 -62 -80 -149 -166 -183 -181 -276 -247 -250 -177 5 12 17
22 28 22 11 0 23 9 26 21 4 11 17 25 30 31 12 5 29 21 36 34 7 13 17 24 22 24
13 0 97 87 97 100 0 6 5 10 11 10 12 0 39 25 39 35 0 4 17 24 38 46 40 42 72
51 72 20z m255 -1 c3 -11 17 -22 31 -25 13 -3 35 -7 49 -10 43 -9 26 -45 -21
-45 -8 0 -28 14 -44 30 -17 17 -40 30 -53 30 -16 0 -26 7 -30 20 -4 17 0 20
28 20 25 0 35 -5 40 -20z m3895 -47 c0 -12 -16 -25 -45 -36 -25 -11 -45 -23
-45 -27 0 -10 -63 -32 -81 -28 -7 2 -18 -7 -23 -18 -10 -22 -63 -44 -104 -44
-15 0 -19 5 -15 19 5 22 50 41 93 41 21 0 29 6 34 25 4 14 10 24 14 23 16 -5
92 13 92 21 0 18 32 41 56 41 16 0 24 -6 24 -17z m-3688 -56 c12 -19 -4 -37
-32 -37 -42 0 -78 41 -47 53 17 8 71 -3 79 -16z m113 -51 c25 -18 13 -46 -20
-46 -37 0 -65 17 -65 40 0 16 7 20 33 20 18 0 42 -6 52 -14z m101 -48 c73 -4
89 -48 18 -48 -58 0 -84 13 -77 40 3 11 9 18 12 15 4 -2 25 -5 47 -7z m3137
-10 c6 -20 -24 -37 -65 -38 -28 0 -38 4 -38 15 0 29 94 49 103 23z m-2974 -49
c20 -7 31 -18 31 -30 0 -16 -7 -19 -42 -19 -42 0 -78 21 -78 47 0 16 45 17 89
2z m2851 -9 c0 -28 -33 -42 -92 -37 -61 5 -73 21 -26 35 86 27 118 28 118 2z
m-2616 -56 c31 -12 18 -34 -21 -36 -100 -4 -143 8 -143 39 0 14 10 15 74 10
40 -4 80 -9 90 -13z m2456 1 c0 -30 -43 -46 -104 -39 -63 8 -74 25 -23 42 51
16 127 15 127 -3z m-3958 -77 c-8 -10 -20 -18 -27 -18 -6 0 -21 -13 -33 -30
-13 -16 -28 -30 -34 -30 -6 0 -26 -11 -44 -25 -18 -14 -42 -25 -53 -25 -12 0
-21 -4 -21 -8 0 -21 -43 -52 -71 -52 -26 0 -30 3 -27 23 2 17 11 23 36 25 20
2 36 10 39 20 9 23 23 32 55 32 19 0 31 8 40 28 9 18 22 28 40 30 17 2 30 11
33 23 4 12 20 25 36 31 16 5 29 15 30 21 0 7 4 3 9 -8 5 -13 3 -26 -8 -37z
m3766 -1 c-17 -14 -37 -18 -103 -16 -73 1 -82 4 -78 19 4 15 22 20 96 27 100
9 122 1 85 -30z m-2064 13 c20 -19 -9 -30 -79 -30 -63 0 -76 3 -85 19 -7 14
-6 21 3 25 17 7 150 -4 161 -14z m259 -46 c56 -5 77 -10 77 -20 0 -10 -13 -14
-42 -15 -24 -1 -81 -3 -128 -5 -72 -3 -90 -1 -115 16 l-29 19 24 10 c14 6 50
8 80 6 30 -3 90 -7 133 -11z m1601 -1 c3 -4 -12 -15 -34 -25 -33 -15 -56 -18
-113 -14 -40 3 -91 5 -114 5 -31 1 -43 5 -43 15 0 11 14 16 48 19 89 7 249 7
256 0z m-2888 -48 c49 -25 94 -45 100 -45 6 0 17 -6 23 -13 6 -8 30 -19 53
-26 24 -7 57 -21 73 -31 17 -10 53 -25 82 -34 76 -25 79 -50 22 -172 -16 -35
-29 -70 -29 -78 0 -8 -4 -17 -9 -21 -5 -3 -19 -31 -31 -63 -11 -31 -27 -70
-35 -87 -43 -94 -74 -163 -80 -185 -4 -14 -21 -50 -36 -81 -16 -31 -29 -63
-29 -70 0 -8 -11 -30 -23 -49 -13 -19 -27 -47 -31 -63 -3 -15 -18 -52 -31 -82
-14 -29 -25 -60 -25 -67 0 -7 -10 -29 -21 -48 -12 -19 -28 -55 -35 -81 -8 -26
-21 -52 -29 -59 -8 -7 -20 -31 -26 -54 -6 -22 -19 -59 -29 -81 -54 -118 -80
-178 -80 -187 0 -5 -9 -28 -21 -51 -11 -23 -27 -62 -36 -87 -8 -25 -20 -56
-26 -70 -22 -56 -69 -189 -87 -250 -10 -36 -28 -92 -39 -124 -12 -33 -21 -64
-21 -71 0 -6 -13 -54 -30 -105 -16 -51 -30 -106 -30 -120 0 -15 -6 -45 -14
-66 -7 -22 -18 -70 -24 -109 -62 -395 -61 -624 3 -925 20 -95 54 -212 69 -235
7 -11 21 -42 31 -70 10 -27 24 -57 30 -65 6 -8 18 -31 25 -50 7 -19 19 -42 26
-50 6 -8 26 -39 44 -69 26 -45 100 -143 121 -161 3 -3 31 -39 61 -80 31 -41
77 -97 103 -125 76 -80 376 -395 424 -444 43 -45 126 -152 189 -243 44 -64 92
-198 92 -257 0 -63 -38 -149 -89 -200 -40 -40 -145 -121 -157 -121 -4 0 -22
-11 -39 -25 -18 -13 -51 -32 -74 -41 -22 -9 -41 -20 -41 -24 0 -5 -22 -16 -49
-25 -27 -9 -56 -24 -66 -35 -10 -11 -34 -25 -53 -31 -20 -7 -50 -20 -67 -30
-16 -11 -37 -19 -45 -19 -9 0 -34 -10 -55 -21 -22 -12 -67 -29 -100 -39 -33
-10 -87 -27 -120 -38 -118 -39 -221 -65 -285 -73 -36 -4 -119 -17 -185 -29
-394 -72 -859 27 -1041 221 -50 54 -124 172 -188 301 -50 102 -147 218 -196
236 -14 4 -77 8 -141 8 -113 -1 -116 -2 -153 -31 -77 -62 -126 -108 -126 -117
0 -5 -8 -21 -18 -36 -65 -95 -80 -120 -94 -147 -53 -104 -98 -171 -163 -240
-32 -34 -151 -115 -169 -115 -6 0 -38 -11 -71 -24 -128 -51 -448 -79 -655 -57
-214 23 -326 39 -355 51 -16 6 -70 20 -119 31 -48 10 -103 28 -121 39 -18 11
-42 20 -55 20 -20 0 -118 38 -205 80 -22 10 -56 26 -75 35 -50 22 -145 80
-247 150 -198 134 -391 361 -455 535 -11 30 -24 60 -29 65 -12 16 -38 179 -45
285 -10 150 24 455 61 554 14 37 25 79 25 95 0 16 11 59 25 95 14 37 25 75 25
86 0 11 11 51 23 88 13 37 27 85 31 107 4 22 18 74 31 115 13 41 36 111 50
155 14 44 30 104 36 132 5 29 18 77 28 105 11 29 22 69 26 88 7 38 20 77 41
126 7 16 16 50 19 75 4 24 13 64 21 89 7 25 23 97 33 160 11 63 27 135 36 160
9 25 20 80 25 122 5 43 16 99 25 125 9 27 21 84 26 128 6 44 17 116 24 160 27
153 38 362 38 725 0 345 -12 599 -33 680 -5 19 -18 103 -29 185 -11 83 -30
186 -42 231 -12 45 -19 88 -16 97 9 24 33 11 56 -29 12 -19 35 -43 52 -52 17
-9 43 -27 58 -38 15 -12 44 -32 66 -44 22 -12 60 -33 85 -47 92 -51 296 -150
360 -174 19 -7 44 -19 55 -26 11 -7 26 -13 35 -13 8 0 53 -16 100 -35 54 -23
100 -35 131 -35 32 0 53 -6 69 -20 13 -11 33 -23 44 -25 12 -3 39 -9 61 -15
119 -29 206 -50 260 -60 33 -6 89 -17 125 -25 36 -8 124 -18 195 -24 72 -6
192 -15 267 -22 123 -11 140 -10 162 5 32 20 50 20 81 0 22 -15 40 -15 158 -5
72 6 191 16 262 22 72 5 162 17 200 25 39 8 122 24 185 35 63 11 122 27 132
35 9 9 43 18 77 20 34 3 83 14 109 26 26 11 74 27 106 34 33 8 65 19 71 24 6
5 38 18 71 29 208 68 540 241 775 405 89 61 262 200 337 270 50 47 98 86 106
86 8 0 54 -20 102 -45z m2554 -4 c11 -1 9 -7 -9 -21 -22 -19 -41 -20 -570 -20
-495 0 -549 2 -570 17 -21 14 -22 17 -8 22 13 5 1107 6 1157 2z m-7046 -66
c22 -23 10 -43 -22 -37 -24 4 -62 33 -62 47 0 12 70 4 84 -10z m3486 -65 c-6
-11 -25 -22 -44 -25 -18 -4 -45 -18 -61 -31 -15 -13 -39 -24 -52 -24 -13 0
-34 -9 -46 -21 -29 -28 -66 -41 -94 -34 -50 12 -10 45 55 45 34 0 41 4 46 25
4 17 15 26 39 30 18 4 39 5 47 3 9 -2 16 6 18 19 2 14 12 25 25 28 72 15 82
13 67 -15z m-3392 14 c13 -4 22 -14 22 -25 0 -14 7 -19 28 -19 46 0 72 -12 78
-34 4 -18 13 -23 47 -24 61 -4 77 -11 77 -34 0 -19 -4 -20 -47 -14 -32 4 -54
14 -68 30 -12 14 -35 26 -58 29 -25 4 -45 15 -58 31 -12 15 -31 26 -44 26 -20
0 -55 23 -55 36 0 6 51 5 78 -2z m370 -160 c28 -8 29 -40 2 -49 -43 -14 -108
24 -83 48 8 9 50 9 81 1z m2678 -5 c9 -14 -30 -49 -55 -49 -10 0 -26 7 -37 15
-17 14 -18 16 -2 28 21 17 85 21 94 6z m-2521 -61 c36 -16 26 -32 -21 -36 -49
-4 -94 12 -94 33 0 19 76 21 115 3z m2376 -7 c-14 -25 -32 -31 -92 -31 -36 0
-49 4 -49 14 0 19 44 34 103 35 44 1 47 -1 38 -18z m-2189 -44 c37 -7 58 -16
61 -27 3 -13 -7 -16 -65 -18 -72 -2 -120 14 -132 43 -5 13 2 16 37 15 23 -1
68 -7 99 -13z m2018 -6 c8 -16 5 -21 -22 -30 -59 -21 -138 -12 -138 15 0 12
13 17 63 27 47 10 88 5 97 -12z m-1782 -55 c52 -8 96 -17 99 -20 14 -13 -11
-19 -99 -21 -108 -4 -158 8 -158 36 0 24 27 25 158 5z m1582 -1 c0 -24 -36
-35 -117 -36 -120 -2 -143 0 -143 11 0 12 28 19 116 29 114 14 144 13 144 -4z
m-290 -53 c0 -40 -30 -42 -581 -42 -458 0 -534 2 -560 15 -16 9 -27 20 -24 25
4 6 158 8 403 4 311 -4 743 4 760 14 1 1 2 -6 2 -16z"/>
<path d="M26805 21680 c-27 -5 -72 -13 -100 -18 -27 -4 -59 -13 -70 -20 -11
-6 -49 -25 -85 -42 -120 -58 -135 -68 -227 -162 -96 -97 -113 -121 -163 -228
-17 -36 -37 -77 -45 -92 -8 -14 -15 -49 -15 -76 0 -28 -4 -54 -10 -57 -5 -3
-10 -20 -10 -37 0 -17 -7 -39 -15 -47 -8 -10 -16 -49 -20 -100 -3 -46 -10 -92
-16 -102 -5 -10 -9 -33 -9 -52 0 -28 -9 -42 -50 -81 -31 -29 -58 -46 -74 -46
-13 0 -37 -11 -53 -23 -15 -13 -45 -27 -66 -30 -20 -3 -50 -14 -65 -25 -15
-11 -38 -23 -52 -26 -39 -12 -161 -74 -210 -108 -159 -111 -286 -306 -320
-488 -5 -25 -14 -65 -20 -90 -14 -51 -6 -228 10 -244 5 -5 10 -25 10 -42 0
-18 5 -36 10 -39 6 -3 10 -19 10 -34 0 -16 7 -34 15 -41 8 -7 15 -18 15 -26 0
-7 15 -41 33 -76 22 -44 67 -99 147 -181 63 -64 124 -120 135 -123 22 -7 96
-56 132 -88 12 -10 33 -24 45 -30 17 -9 23 -20 23 -45 0 -36 -9 -44 -92 -86
-17 -9 -39 -25 -49 -36 -9 -10 -23 -19 -30 -19 -7 0 -26 -11 -42 -25 -17 -14
-34 -25 -39 -25 -5 0 -20 -11 -33 -25 -13 -14 -27 -25 -32 -25 -11 0 -99 -61
-171 -118 -169 -135 -301 -280 -334 -367 -16 -42 -24 -92 -17 -110 11 -29 38
-14 125 68 48 45 120 107 160 137 39 30 122 103 183 161 61 58 153 139 204
179 50 41 92 77 92 82 0 11 76 32 94 25 21 -8 21 -75 1 -124 -12 -27 -15 -80
-15 -229 0 -118 4 -195 10 -199 6 -3 10 -17 10 -31 0 -14 6 -35 14 -47 8 -12
21 -43 30 -69 18 -55 92 -173 131 -208 15 -14 33 -37 41 -52 8 -16 19 -28 25
-28 6 0 31 -18 56 -40 25 -22 50 -40 55 -40 6 0 23 -11 39 -25 16 -13 46 -29
65 -34 20 -6 44 -17 53 -25 17 -15 110 -35 206 -43 33 -3 66 -10 73 -15 8 -7
16 -7 25 0 6 6 46 12 87 15 81 5 144 18 200 44 94 42 158 77 185 102 17 15 43
35 58 45 46 28 178 158 205 201 14 22 54 70 90 108 62 64 67 67 112 67 29 0
52 -6 60 -14 6 -8 33 -23 58 -33 26 -9 62 -28 81 -40 19 -13 41 -23 51 -23 9
0 27 -11 40 -24 12 -14 37 -28 54 -32 17 -3 45 -17 63 -30 17 -13 41 -24 52
-24 11 0 32 -11 48 -24 15 -13 42 -27 60 -30 18 -4 51 -17 75 -29 38 -19 63
-22 212 -25 129 -3 178 0 210 11 22 8 68 23 101 33 33 10 73 29 88 41 16 13
34 23 41 23 7 0 23 11 36 25 13 14 30 25 37 25 33 0 150 129 218 239 5 9 20
30 32 48 13 17 23 37 23 43 0 6 11 38 26 73 24 60 44 182 44 277 1 56 -17 188
-29 215 -4 11 -13 31 -19 45 -6 14 -14 36 -18 50 -4 14 -17 41 -30 60 -13 19
-24 42 -24 52 0 9 -11 30 -25 46 -14 17 -25 36 -25 44 0 8 -4 18 -9 24 -23 23
-131 251 -131 275 0 14 7 32 15 39 8 7 15 18 15 25 0 7 7 19 17 26 9 8 22 28
30 44 7 17 22 44 33 60 11 17 26 44 33 60 8 17 21 36 30 44 10 7 17 18 17 23
0 6 14 26 30 45 17 18 30 38 30 44 0 6 11 34 24 62 12 29 28 72 35 97 7 25 17
59 22 75 29 87 28 342 -2 361 -5 3 -9 16 -9 29 0 13 -4 27 -10 30 -5 3 -10 15
-10 27 0 11 -7 34 -16 51 -30 58 -34 67 -34 80 0 7 -13 26 -30 42 -16 16 -30
34 -30 40 0 13 -174 188 -193 194 -6 2 -21 12 -32 22 -11 10 -31 23 -45 29
-14 6 -41 20 -60 30 -19 11 -45 19 -57 20 -12 0 -34 6 -50 14 -62 32 -108 37
-273 33 -154 -3 -252 -17 -275 -38 -11 -11 -226 -12 -240 -1 -16 12 -58 87
-79 142 -4 8 -14 29 -24 45 -10 17 -22 44 -26 60 -4 17 -14 37 -21 45 -8 9
-27 41 -42 71 -52 103 -149 216 -244 286 -62 46 -242 133 -274 133 -14 0 -34
4 -43 9 -25 13 -219 21 -277 11z m194 -836 c20 -38 42 -83 49 -100 8 -16 45
-96 83 -178 38 -82 69 -156 69 -164 0 -8 11 -29 24 -47 13 -17 29 -48 35 -69
5 -22 19 -48 29 -60 10 -12 24 -39 30 -61 7 -24 32 -62 61 -94 l49 -53 69 5
c37 3 109 15 158 26 50 12 131 25 180 30 50 6 132 19 184 30 52 12 115 21 140
21 25 0 61 4 80 10 19 5 66 12 106 16 66 6 74 5 95 -16 29 -29 23 -86 -16
-137 -15 -20 -37 -54 -49 -74 -60 -110 -77 -140 -117 -201 -23 -36 -50 -79
-59 -95 -9 -15 -40 -66 -69 -113 -135 -218 -139 -232 -94 -316 45 -84 136
-256 171 -324 18 -36 38 -72 43 -80 5 -8 18 -33 28 -55 18 -36 71 -140 99
-190 60 -112 61 -116 9 -164 -25 -24 -27 -24 -63 -8 -21 9 -49 19 -63 22 -14
4 -36 14 -50 23 -24 16 -59 34 -327 173 -130 67 -364 189 -452 236 -75 40
-120 38 -162 -6 -14 -15 -39 -33 -57 -40 -18 -8 -113 -98 -224 -214 -362 -377
-431 -446 -449 -452 -27 -9 -74 20 -88 53 -10 24 -9 41 3 88 8 32 19 95 25
139 21 160 31 222 52 320 15 74 21 139 21 249 l1 149 -34 29 c-19 16 -47 36
-64 45 -16 8 -59 37 -95 62 -36 26 -76 52 -90 59 -14 7 -45 27 -70 46 -25 19
-67 49 -95 65 -56 34 -165 109 -207 141 -23 18 -28 29 -28 66 0 39 4 47 33 64
17 11 52 26 77 34 25 8 67 25 94 40 27 14 57 26 67 26 10 0 20 4 23 9 3 5 32
18 63 31 76 28 166 66 228 95 28 13 61 26 75 30 14 4 48 25 77 46 47 35 54 46
73 106 11 37 26 102 32 143 5 41 19 108 29 147 11 40 24 105 29 145 6 40 19
107 29 148 10 41 22 98 26 125 3 28 13 60 21 73 13 20 22 23 66 20 l50 -3 37
-71z"/>
</g>
</svg>
